<?xml version="1.0" encoding="UTF-8"?>
<svg width="20px" height="20px" viewBox="0 0 20 20" version="1.1" xmlns="http://www.w3.org/2000/svg" xmlns:xlink="http://www.w3.org/1999/xlink">
    <!-- Generator: Sketch 52.2 (67145) - http://www.bohemiancoding.com/sketch -->
    <title>Icon</title>
    <desc>Created with Sketch.</desc>
    <defs>
        <path d="M3.09999925,13.3000031 L9.89999884,13.3000031 C10.3418267,13.3000031 10.6999989,13.6581753 10.6999989,14.1000031 L10.6999989,20.9000027 C10.6999989,21.3418305 10.3418267,21.7000027 9.89999884,21.7000027 L3.09999925,21.7000027 C2.65817144,21.7000027 2.29999924,21.3418305 2.29999924,20.9000027 L2.29999924,14.1000031 C2.29999924,13.6581753 2.65817144,13.3000031 3.09999925,13.3000031 Z M3.09999925,2.30000305 L9.89999884,2.30000305 C10.3418267,2.30000305 10.6999989,2.65817526 10.6999989,3.10000306 L10.6999989,9.90000266 C10.6999989,10.3418305 10.3418267,10.7000027 9.89999884,10.7000027 L3.09999925,10.7000027 C2.65817144,10.7000027 2.29999924,10.3418305 2.29999924,9.90000266 L2.29999924,3.10000306 C2.29999924,2.65817526 2.65817144,2.30000305 3.09999925,2.30000305 Z M14.0999992,2.30000305 L20.8999988,2.30000305 C21.3418267,2.30000305 21.6999989,2.65817526 21.6999989,3.10000306 L21.6999989,9.90000266 C21.6999989,10.3418305 21.3418267,10.7000027 20.8999988,10.7000027 L14.0999992,10.7000027 C13.6581714,10.7000027 13.2999992,10.3418305 13.2999992,9.90000266 L13.2999992,3.10000306 C13.2999992,2.65817526 13.6581714,2.30000305 14.0999992,2.30000305 Z M14.0999992,13.3000031 L20.8999988,13.3000031 C21.3418267,13.3000031 21.6999989,13.6581753 21.6999989,14.1000031 L21.6999989,20.9000027 C21.6999989,21.3418305 21.3418267,21.7000027 20.8999988,21.7000027 L14.0999992,21.7000027 C13.6581714,21.7000027 13.2999992,21.3418305 13.2999992,20.9000027 L13.2999992,14.1000031 C13.2999992,13.6581753 13.6581714,13.3000031 14.0999992,13.3000031 Z M14.75,14.75 L14.75,20.25 L20.25,20.25 L20.25,14.75 L14.75,14.75 Z M14.75,3.75 L14.75,9.25 L20.25,9.25 L20.25,3.75 L14.75,3.75 Z M3.75,3.75 L3.75,9.25 L9.25,9.25 L9.25,3.75 L3.75,3.75 Z M3.75,14.75 L3.75,20.25 L9.25,20.25 L9.25,14.75 L3.75,14.75 Z" id="path-1"></path>
    </defs>
    <g id="Symbols" stroke="none" stroke-width="1" fill="none" fill-rule="evenodd">
        <g id="Nav/Menu/Small" transform="translate(-30.000000, -18.000000)">
            <g id="icon-dashboard" transform="translate(28.000000, 16.000000)">
                <mask id="mask-2" fill="white">
                    <use xlink:href="#path-1"></use>
                </mask>
                <use id="Combined-Shape" fill="#FFFFFF" fill-rule="evenodd" xlink:href="#path-1"></use>
            </g>
        </g>
    </g>
</svg>