<?xml version="1.0" encoding="UTF-8"?>
<svg width="23px" height="25px" viewBox="0 0 23 25" version="1.1" xmlns="http://www.w3.org/2000/svg" xmlns:xlink="http://www.w3.org/1999/xlink">
    <!-- Generator: Sketch 52.2 (67145) - http://www.bohemiancoding.com/sketch -->
    <title>medal</title>
    <desc>Created with Sketch.</desc>
    <g id="Page-1" stroke="none" stroke-width="1" fill="none" fill-rule="evenodd" opacity="0.37">
        <g id="Heat-map" transform="translate(-35.000000, -387.000000)" fill="#FFFFFF">
            <g id="Group-21" transform="translate(1.000000, 0.000000)">
                <g id="medal" transform="translate(34.000000, 387.000000)">
                    <path d="M15.093514,7.85292969 C15.0356455,7.67617188 14.8817063,7.54741211 14.6965466,7.52070313 L12.5576719,7.21259766 L11.6006529,5.28808594 C11.5177588,5.12148438 11.3469065,5.01601563 11.1598293,5.01601563 L11.159731,5.01601563 C10.9725555,5.01606445 10.8017031,5.12163086 10.7189073,5.28833008 L9.76297003,7.21333008 L7.62424284,7.52255859 C7.43903398,7.54931641 7.28524229,7.67822266 7.22747207,7.85498047 C7.16970186,8.03173828 7.21798301,8.22578125 7.35200991,8.35546875 L8.90005507,9.85327148 L8.53529146,11.9688477 C8.50367763,12.1520508 8.57959015,12.3371582 8.73102187,12.4463867 C8.81666929,12.5081543 8.91804987,12.5395508 9.01992212,12.5395508 C9.09819462,12.5395508 9.17681128,12.5209961 9.24879051,12.4833984 L11.1615009,11.484082 L13.0747522,12.482373 C13.2403929,12.5688477 13.4411383,12.5543945 13.5925208,12.4450684 C13.7439034,12.335791 13.8196684,12.1506348 13.7880054,11.9674805 L13.422111,9.85209961 L14.9693695,8.35351562 C15.1032489,8.22373047 15.1513826,8.0296875 15.093514,7.85292969 Z M12.5504445,9.33222656 C12.434609,9.44443359 12.3817554,9.60605469 12.409141,9.76445313 L12.6501534,11.1577637 L11.389976,10.5002441 C11.246755,10.4254883 11.0756077,10.4255371 10.9323867,10.5003418 L9.67255349,11.1585449 L9.91282843,9.76508789 C9.9401648,9.60668945 9.88721287,9.44506836 9.77132827,9.33291016 L8.75172081,8.34638672 L10.16038,8.14272461 C10.3205141,8.11958008 10.4589168,8.01962891 10.5305027,7.87553711 L11.1601243,6.60766602 L11.7904834,7.87524414 C11.8621676,8.01933594 12.0006195,8.11918945 12.1607536,8.14223633 L13.5695111,8.34516602 L12.5504445,9.33222656 Z" id="Shape" fill-rule="nonzero"></path>
                    <path d="M22.2102148,21.4534668 L18.1463381,14.4334473 C19.3735742,12.9120605 20.1088538,10.9832031 20.1088538,8.88671875 C20.1088538,3.98657227 16.0946842,0 11.160616,0 C6.22654775,0 2.21237807,3.98657227 2.21237807,8.88671875 C2.21237807,10.9832031 2.94760856,12.9120605 4.1748938,14.4334473 L0.111017149,21.4534668 C0.0176998112,21.6146973 0.0246814034,21.8145996 0.129061123,21.969043 C0.233440843,22.1234375 0.417273049,22.2055664 0.602678571,22.1808105 L3.7745339,21.7578125 L4.99159259,24.6973145 C5.0628835,24.8694336 5.22650842,24.986377 5.41353642,24.9987793 C5.42454964,24.9995117 5.43551369,24.9998535 5.44642857,24.9998535 C5.62121421,24.9998535 5.78390497,24.9074219 5.87210903,24.7557129 L9.97467944,17.6987305 C9.9753186,17.6976562 9.97576109,17.6965332 9.97640025,17.6954102 C10.3640261,17.7465332 10.7592236,17.7733887 11.1607143,17.7733887 C11.562205,17.7733887 11.9574025,17.7465332 12.3450283,17.6954102 C12.3456675,17.6964844 12.34611,17.6976074 12.3467491,17.6987305 L16.4493195,24.7557129 C16.5375236,24.9074219 16.7002635,24.9998535 16.875,24.9998535 C16.8859149,24.9998535 16.8968789,24.9995117 16.9078921,24.9987793 C17.0949202,24.986377 17.2585451,24.8694336 17.329836,24.6973145 L18.5469438,21.7578125 L21.7187992,22.1808105 C21.904598,22.2055664 22.0880369,22.1234375 22.1924166,21.969043 C22.2965013,21.8145996 22.3035321,21.6146973 22.2102148,21.4534668 Z M5.52057111,23.4071777 L4.63459723,21.2674316 L5.42966292,19.9789062 C5.5715564,19.7489746 5.49888885,19.4483398 5.26736548,19.3074707 C5.03584212,19.1666016 4.73312618,19.2387207 4.59128186,19.4686523 L3.78785793,20.7707031 L1.46082442,21.0810059 L4.86685809,15.1974121 C5.98253619,16.2949219 7.38652454,17.1036621 8.95472782,17.4999512 L5.52057111,23.4071777 Z M11.1605668,16.796875 C6.7687028,16.796875 3.19565175,13.2483887 3.19565175,8.88671875 C3.19565175,4.52504883 6.7687028,0.9765625 11.1605668,0.9765625 C15.5524308,0.9765625 19.1254818,4.52504883 19.1254818,8.88671875 C19.1254818,13.2483887 15.5524308,16.796875 11.1605668,16.796875 Z M18.5333248,20.7707031 L17.7299009,19.4686523 C17.5880566,19.2387207 17.2853406,19.1665039 17.0538173,19.3074707 C16.8222939,19.4483887 16.7496263,19.7489746 16.8915198,19.9789063 L17.6865855,21.2674316 L16.8006116,23.4071777 L13.3664549,17.4999512 C14.9346582,17.1036621 16.3386957,16.2949219 17.4543247,15.1974121 L20.8603583,21.0810059 L18.5333248,20.7707031 Z" id="Shape" fill-rule="nonzero"></path>
                    <path d="M11.1605668,2.5390625 C10.0633752,2.5390625 8.9808842,2.81992187 8.03006018,3.35136719 C7.79342354,3.48359375 7.7095461,3.78134766 7.84268801,4.01635742 C7.97582992,4.25136719 8.27564506,4.33476562 8.5122817,4.20244141 C9.31619729,3.753125 10.2319659,3.515625 11.1605668,3.515625 C14.14269,3.515625 16.5688424,5.92509766 16.5688424,8.88671875 C16.5688424,9.69599609 16.3922868,10.473584 16.0440922,11.1978516 C15.9271259,11.4412109 16.0309157,11.732666 16.2759597,11.848877 C16.3443498,11.8812988 16.4164274,11.8966309 16.4874725,11.8966309 C16.6709605,11.8966309 16.8471228,11.794043 16.9314919,11.6186035 C17.3433075,10.7619141 17.5521653,9.84277344 17.5521653,8.88671875 C17.5521653,5.38662109 14.6849434,2.5390625 11.1605668,2.5390625 Z" id="Path"></path>
                    <path d="M15.7356238,12.6182617 C15.5407784,12.4304687 15.2295076,12.4351074 15.0404146,12.6286133 L15.0294997,12.6397461 C14.8398167,12.832666 14.8435042,13.1418457 15.0377596,13.3302246 C15.1333877,13.4229492 15.2573356,13.4691406 15.3811851,13.4691406 C15.5089679,13.4691406 15.6367015,13.4199707 15.733018,13.3219727 L15.7459979,13.3087402 C15.93514,13.1152344 15.9304692,12.8061035 15.7356238,12.6182617 Z" id="Path"></path>
                    <path d="M14.434491,13.786377 C14.3034633,13.5501953 14.0044348,13.464209 13.7666182,13.5943848 C12.9735191,14.028418 12.0723529,14.2578125 11.1605668,14.2578125 C8.1784436,14.2578125 5.75229114,11.8483398 5.75229114,8.88671875 C5.75229114,8.11088867 5.91508024,7.36264648 6.23608598,6.66279297 C6.34867645,6.41738281 6.23957678,6.12783203 5.99246775,6.01601562 C5.74535872,5.90424805 5.45380349,6.01254883 5.34121303,6.25795898 C4.96145374,7.08579102 4.76891913,7.97021484 4.76891913,8.88671875 C4.76891913,12.3868164 7.63619021,15.234375 11.1605176,15.234375 C12.237797,15.234375 13.3030798,14.9630371 14.2411698,14.4496582 C14.4789864,14.3194824 14.565568,14.0225586 14.434491,13.786377 Z" id="Path"></path>
                    <path d="M7.1782076,4.53608398 C6.97952722,4.35224609 6.66840387,4.36328125 6.48334251,4.56054688 L6.47242763,4.5722168 C6.28805459,4.77016602 6.3001003,5.07910156 6.49941984,5.26220703 C6.59396633,5.34912109 6.71368589,5.39208984 6.83315961,5.39208984 C6.96541654,5.39208984 7.09728013,5.3394043 7.1941866,5.23540039 L7.20283984,5.22617188 C7.3879012,5.02885742 7.37688798,4.71987305 7.1782076,4.53608398 Z" id="Path"></path>
                </g>
            </g>
        </g>
    </g>
</svg>