<?xml version="1.0" encoding="UTF-8"?>
<svg width="25px" height="25px" viewBox="0 0 25 25" version="1.1" xmlns="http://www.w3.org/2000/svg" xmlns:xlink="http://www.w3.org/1999/xlink">
    <!-- Generator: Sketch 52.2 (67145) - http://www.bohemiancoding.com/sketch -->
    <title>write-board</title>
    <desc>Created with Sketch.</desc>
    <g id="Page-1" stroke="none" stroke-width="1" fill="none" fill-rule="evenodd">
        <g id="Heat-map" transform="translate(-34.000000, -312.000000)" fill="#FFFFFF">
            <g id="Group-21" transform="translate(1.000000, 0.000000)">
                <g id="write-board" transform="translate(33.000000, 312.000000)">
                    <path d="M24.2113636,1.30126263 L13.2886364,1.30126263 L13.2886364,0.788636364 C13.2886364,0.353114478 12.9355219,0 12.5,0 C12.0644781,0 11.7113636,0.353114478 11.7113636,0.788636364 L11.7113636,1.30126263 L0.788636364,1.30126263 C0.353114478,1.30126263 8.41750842e-05,1.6543771 8.41750842e-05,2.08989899 L8.41750842e-05,4.69242424 C8.41750842e-05,5.12794613 0.353114478,5.48106061 0.788636364,5.48106061 L1.30126263,5.48106061 L1.30126263,19.0063131 C1.30126263,19.441835 1.6543771,19.7949495 2.08989899,19.7949495 L10.9227273,19.7949495 L7.96531987,23.7382155 C7.7040404,24.0866162 7.77457912,24.5809764 8.12306397,24.8422559 C8.26489899,24.9487374 8.43089226,25 8.5956229,25 C8.83535354,25 9.07213805,24.8910774 9.22710438,24.6845118 L11.7113636,21.3722222 L11.7113636,24.2113636 C11.7113636,24.6468855 12.0644781,25 12.5,25 C12.9355219,25 13.2886364,24.6468855 13.2886364,24.2113636 L13.2886364,21.3722222 L15.7728956,24.6845118 C15.927862,24.8910774 16.1645623,25 16.4043771,25 C16.5691077,25 16.735101,24.9486532 16.876936,24.8422559 C17.2254209,24.5809764 17.2960438,24.086532 17.0346801,23.7382155 L14.0772727,19.7949495 L22.910101,19.7949495 C23.3456229,19.7949495 23.6986532,19.441835 23.6986532,19.0063131 L23.6986532,5.48106061 L24.2113636,5.48106061 C24.6468855,5.48106061 24.9999158,5.12794613 24.9999158,4.69242424 L24.9999158,2.08989899 C24.9999158,1.6543771 24.6468855,1.30126263 24.2113636,1.30126263 Z M1.57727273,3.90378788 L1.57727273,2.87853535 L23.4226431,2.87853535 L23.4226431,3.90378788 L1.57727273,3.90378788 Z M22.1214646,18.2176768 L2.87853535,18.2176768 L2.87853535,5.48106061 L22.1214646,5.48106061 L22.1214646,18.2176768 Z" id="Shape" fill-rule="nonzero"></path>
                    <path d="M5.99368687,11.9874579 L17.7050505,11.9874579 C18.1405724,11.9874579 18.4936869,11.6343434 18.4936869,11.1988215 C18.4936869,10.7632997 18.1405724,10.4101852 17.7050505,10.4101852 L5.99368687,10.4101852 C5.55816498,10.4101852 5.20505051,10.7632997 5.20505051,11.1988215 C5.20505051,11.6343434 5.55816498,11.9874579 5.99368687,11.9874579 Z" id="Path"></path>
                    <path d="M5.99368687,9.38493266 L8.59621212,9.38493266 C9.03173401,9.38493266 9.38484848,9.03190236 9.38484848,8.5962963 C9.38484848,8.16077441 9.03173401,7.80765993 8.59621212,7.80765993 L5.99368687,7.80765993 C5.55816498,7.80765993 5.20505051,8.16077441 5.20505051,8.5962963 C5.20505051,9.03190236 5.55816498,9.38493266 5.99368687,9.38493266 Z" id="Path"></path>
                    <path d="M5.99368687,14.589899 L13.8012626,14.589899 C14.2367845,14.589899 14.589899,14.2367845 14.589899,13.8012626 C14.589899,13.3657407 14.2367845,13.0126263 13.8012626,13.0126263 L5.99368687,13.0126263 C5.55816498,13.0126263 5.20505051,13.3657407 5.20505051,13.8012626 C5.20505051,14.2367845 5.55816498,14.589899 5.99368687,14.589899 Z" id="Path"></path>
                </g>
            </g>
        </g>
    </g>
</svg>