<?xml version="1.0" encoding="UTF-8"?>
<svg width="15px" height="20px" viewBox="0 0 15 20" version="1.1" xmlns="http://www.w3.org/2000/svg" xmlns:xlink="http://www.w3.org/1999/xlink">
    <!-- Generator: Sketch 52.2 (67145) - http://www.bohemiancoding.com/sketch -->
    <title>lock (1)</title>
    <desc>Created with Sketch.</desc>
    <g id="Page-1" stroke="none" stroke-width="1" fill="none" fill-rule="evenodd">
        <g id="Desktop__4" transform="translate(-183.000000, -403.000000)" fill="#F74236" fill-rule="nonzero">
            <g id="Group-2" transform="translate(160.000000, 308.000000)">
                <g id="lock-(1)" transform="translate(23.000000, 95.000000)">
                    <path d="M13.6622689,7.15178593 L12.4912162,7.15178593 L12.4912162,5.56248775 C12.4912162,2.49530281 10.0397273,0 7.026316,0 C4.01290473,0 1.56141575,2.49530281 1.56141575,5.56248775 L1.56141575,7.15178593 L0.390363087,7.15178593 C0.174596634,7.15178593 0,7.32950036 0,7.54911979 L0,17.4821682 C0,18.3586717 0.700252899,19.0714291 1.56141575,19.0714291 L12.4912528,19.0714291 C13.3523791,19.0714291 14.052632,18.3586717 14.052632,17.482131 L14.052632,7.54911979 C14.052632,7.32950036 13.8780354,7.15178593 13.6622689,7.15178593 Z M8.19509975,15.4516942 C8.20728602,15.5638134 8.17186168,15.6763423 8.09790238,15.760562 C8.02394309,15.8447445 7.91796282,15.89287 7.80704217,15.89287 L6.24562642,15.89287 C6.13470578,15.89287 6.02872551,15.8447445 5.95476621,15.760562 C5.88080692,15.6763795 5.84534598,15.5638506 5.85756884,15.4516942 L6.10381926,13.1977642 C5.70394137,12.9017101 5.46493684,12.4333798 5.46493684,11.9196432 C5.46493684,11.0431397 6.16518974,10.330345 7.0263526,10.330345 C7.88751545,10.330345 8.58776835,11.0431025 8.58776835,11.9196432 C8.58776835,12.4333798 8.34876382,12.9017101 7.94888593,13.1977642 L8.19509975,15.4516942 Z M10.1491109,7.15178593 L3.90352109,7.15178593 L3.90352109,5.56248775 C3.90352109,3.80985321 5.30442944,2.38392864 7.026316,2.38392864 C8.74820256,2.38392864 10.1491109,3.80985321 10.1491109,5.56248775 L10.1491109,7.15178593 Z" id="Shape"></path>
                </g>
            </g>
        </g>
    </g>
</svg>