<?xml version="1.0" encoding="UTF-8"?>
<svg width="19px" height="15px" viewBox="0 0 19 15" version="1.1" xmlns="http://www.w3.org/2000/svg" xmlns:xlink="http://www.w3.org/1999/xlink">
    <!-- Generator: Sketch 52.2 (67145) - http://www.bohemiancoding.com/sketch -->
    <title>envelope</title>
    <desc>Created with Sketch.</desc>
    <g id="Page-1" stroke="none" stroke-width="1" fill="none" fill-rule="evenodd">
        <g id="Desktop__4" transform="translate(-183.000000, -332.000000)" fill="#F74236">
            <g id="Group-2" transform="translate(160.000000, 308.000000)">
                <g id="envelope" transform="translate(23.000000, 24.000000)">
                    <path d="M1.80420574,4.58267376 C2.04199378,4.75047011 2.75877482,5.24882564 3.9545856,6.07748316 C5.15043312,6.90614068 6.06653433,7.54418567 6.70292597,7.99165485 C6.77284417,8.04070414 6.92138822,8.14732665 7.14863158,8.31166935 C7.37591168,8.47612226 7.56476065,8.60901462 7.71503152,8.71038316 C7.86541262,8.81171497 8.04720731,8.92539176 8.2605993,9.05122984 C8.4739178,9.17695769 8.67500154,9.27152914 8.86381377,9.33413588 C9.05266274,9.39725699 9.22747663,9.42852362 9.38829218,9.42852362 L9.39883686,9.42852362 L9.40941828,9.42852362 C9.57023383,9.42852362 9.7451212,9.39722025 9.93397017,9.33413588 C10.1227089,9.27152914 10.3239764,9.17684747 10.5371112,9.05122984 C10.7503562,8.92524479 10.9321509,8.81167822 11.082532,8.71038316 C11.2329131,8.60901462 11.4216151,8.47612226 11.6489687,8.31166935 C11.8761753,8.14717969 12.024903,8.04070414 12.0948212,7.99165485 C12.7380834,7.54418567 14.3746398,6.40774841 17.0039759,4.58245331 C17.514456,4.22595496 17.940946,3.79579081 18.2835563,3.29225479 C18.6264237,2.78893922 18.7976737,2.26093367 18.7976737,1.70853206 C18.7976737,1.24691757 18.631494,0.851767638 18.2992814,0.523118994 C17.9671057,0.194396867 17.5736826,0.0301276566 17.1192693,0.0301276566 L1.67829418,0.0301276566 C1.13985417,0.0301276566 0.725488668,0.211922346 0.435271156,0.575511724 C0.145090385,0.939174584 0,1.39373479 0,1.9391556 C0,2.37971746 0.19237611,2.8571306 0.576944624,3.37110107 C0.961476398,3.88510829 1.37069815,4.28900259 1.80420574,4.58267376 Z" id="Path"></path>
                    <path d="M17.7485699,5.70496571 C15.455047,7.25731159 13.7135214,8.46374053 12.5248384,9.32399535 C12.1262348,9.61759304 11.8028769,9.84678368 11.5545442,10.0110161 C11.3062115,10.1753588 10.9759462,10.3431919 10.5632708,10.5144419 C10.1507423,10.6859491 9.76628405,10.7714455 9.40956524,10.7714455 L9.3988736,10.7714455 L9.38832892,10.7714455 C9.0316836,10.7714455 8.64700486,10.6859491 8.23447641,10.5144419 C7.82194796,10.3431919 7.49146227,10.1753588 7.24320303,10.0110161 C6.99501727,9.84678368 6.67154911,9.61759304 6.27298226,9.32399535 C5.32884764,8.63172059 3.59106971,7.42521816 1.05957499,5.70496571 C0.66086117,5.43940144 0.307706249,5.13500188 0,4.79239164 L0,13.1210354 C0,13.5828703 0.164269211,13.9777998 0.492991337,14.3064852 C0.821639982,14.6352808 1.21682666,14.7996235 1.6784044,14.7996235 L17.1194163,14.7996235 C17.5808838,14.7996235 17.9760337,14.6352808 18.3047191,14.3064852 C18.6335147,13.9776896 18.7977105,13.582907 18.7977105,13.1210354 L18.7977105,4.79239164 C18.4969483,5.12791086 18.147394,5.43231042 17.7485699,5.70496571 Z" id="Path"></path>
                </g>
            </g>
        </g>
    </g>
</svg>