<?xml version="1.0" encoding="UTF-8"?>
<svg width="634px" height="528px" viewBox="0 0 634 528" version="1.1" xmlns="http://www.w3.org/2000/svg" xmlns:xlink="http://www.w3.org/1999/xlink">
    <!-- Generator: Sketch 52.2 (67145) - http://www.bohemiancoding.com/sketch -->
    <title>Group 4</title>
    <desc>Created with Sketch.</desc>
    <defs>
        <path d="M95.1925685,49.6220127 C102.123439,64.7475436 106.018403,79.0597525 100.914476,85.4442755 C100.612787,85.8211809 100.283546,86.1672285 99.9270286,86.4821428 C95.9956965,89.9448228 88.2644532,90.0219672 75.2113506,84.8676214 C40.4721396,71.1450159 38.8231787,47.4630724 31.7969799,24.3365685 C24.8705177,1.49963141 0.675013221,5.35822739 0.0581337916,5.46154574 C56.4349625,-14.1761042 83.4332871,23.9803268 95.1925685,49.6220127" id="path-1"></path>
        <path d="M51.597184,64.5050899 C51.2954944,64.8819952 50.9662533,65.2280428 50.6097361,65.5429572 C44.0841491,61.6121761 31.5892411,53.2778292 25.6978911,43.9213194 C22.9193162,39.5048043 20.5843215,34.5397377 18.1066097,29.2873083 C13.4327631,19.3519402 8.58947435,9.07851454 0.139961925,1.19959492 L1.08194976,0.18349339 C9.72487414,8.25031465 14.6194088,18.6438652 19.3541444,28.7001846 C21.8098149,33.9170724 24.1271766,38.8421893 26.8671793,43.1829376 C32.6116795,52.3104939 45.2363554,60.6776272 51.597184,64.5050899" id="path-3"></path>
        <path d="M41.767614,88.0374283 C41.3587488,89.0438868 41.0942538,89.6136531 41.0653247,89.6775727 C40.9587002,89.1218577 40.8548308,88.570551 40.7493083,88.0379794 C36.1148604,64.2926674 29.917688,61.8116494 11.3358139,41.0399773 C-7.66732364,19.7955204 3.26100264,0.004132734 3.26100264,0.004132734 C66.9249434,18.3983808 46.0940354,77.4223633 41.767614,88.0374283" id="path-5"></path>
        <path d="M23.0325531,63.2410243 C22.623688,64.2474828 22.359193,64.8172491 22.3302639,64.8811687 C22.2236393,64.3254537 22.11977,63.774147 22.0142475,63.2415754 C24.0764818,42.7137345 11.692331,18.6251301 7.8009487,14.3033924 C3.77456372,9.8265394 1.29354574,3.6717964 0.356792702,1.35250608 C0.198922263,0.968161819 0.0512459016,0.601450555 0.0030306716,0.516316235 L0.900936013,0.00909201481 C0.979733474,0.148227393 1.08250079,0.40390587 1.31172977,0.967335272 C2.22754363,3.2389614 4.66337705,9.27137546 8.56963723,13.6088176 C13.5008154,19.0904759 24.9253453,43.2942459 23.0325531,63.2410243" id="path-7"></path>
        <path d="M55.3626557,0.438069804 C50.1504516,-2.05534638 44.9627684,14.5389582 44.9627684,14.5389582 C36.1035643,26.2456161 23.7224442,10.6707192 24.9330598,28.1714701 C27.0514992,58.7922739 -10.3144775,37.8007403 6.92398255,69.7715706 C24.1624426,101.742401 -8.29742782,87.8481491 2.41544527,113.628144 C13.1283184,139.405383 -0.756841354,170.152924 15.3621988,157.517779 C15.3621988,157.517779 29.5551095,126.392782 44.1921512,116.763511 C58.8294685,107.134241 35.4233162,95.7086092 40.0029365,82.6298837 C46.6547097,63.633083 62.6814521,64.3769751 51.1255013,43.9640243 C39.5701015,23.5483184 73.081615,8.91017451 55.3626557,0.438069804" id="path-9"></path>
        <path d="M12.4621216,3.31996298 C8.32387731,1.06073506 3.88559651,0.60613432 2.13965415,2.26198308 C0.812495505,3.51833421 1.43846695,5.67286621 2.19723691,7.25983607 C3.64479588,10.2877525 5.47559704,12.1557483 7.090945,13.8033316 C9.33667266,16.0928662 11.1104421,17.9030037 10.2111592,21.4185828 C10.0345537,22.1073718 9.83122316,22.8044262 9.62679059,23.5014807 C8.19961978,28.3836171 6.85124643,32.9957483 14.3246071,36.3542834 C16.0796415,37.1450132 17.688377,37.7759439 19.1078334,38.3324855 C25.0206737,40.6523268 28.9272094,42.1869487 33.114771,51.0254892 C33.8942047,52.6703173 34.579412,54.2242253 35.242027,55.7257853 C38.8565161,63.9168641 41.0385997,68.8623691 48.9409381,67.2643786 C51.2059519,66.8070227 52.6818889,65.6388366 53.327422,63.7928821 C54.987128,59.0457483 51.0158461,50.7361978 47.5096346,46.5621364 C47.252854,46.253559 41.2251237,38.9055579 41.8874632,28.3891274 C41.9954654,26.6781756 42.1715198,25.1049815 42.3271861,23.7163829 C42.739082,20.0382496 43.0369143,17.3822792 41.6725611,15.8504125 C40.425302,14.4480381 37.6946668,13.811597 32.8196938,13.7895558 C23.029798,13.7427181 19.1651407,9.69539397 16.0598043,6.44430989 C14.817229,5.14387626 13.7443712,4.01977261 12.4621216,3.31996298 Z M34.1845981,56.1914067 C33.5252893,54.6981121 32.8428371,53.1524696 32.0702914,51.5214172 C28.0788969,43.093395 24.5432052,41.7075516 18.685468,39.4069963 C17.2541645,38.8476996 15.6316531,38.2112586 13.8507203,37.4095082 C5.45961713,33.6376996 7.08433263,28.08055 8.51811581,23.1791274 C8.71841565,22.4930936 8.91843998,21.8070598 9.09173929,21.1320465 C9.82984558,18.2473982 8.41176679,16.8009413 6.26550026,14.6105923 C4.67026494,12.9850502 2.68517504,10.9572554 1.15468588,7.7585193 C-0.520173453,4.25671602 0.333649392,2.38045479 1.34479164,1.4216605 C3.47342517,-0.595113696 8.38201111,-0.223167636 13.015908,2.30606557 C14.4557525,3.09128503 15.6410206,4.33386039 16.8954432,5.6480698 C19.8497969,8.74210999 23.5265526,12.5910629 32.8252041,12.6351454 C38.1275019,12.6599418 41.0314363,13.3900582 42.5357515,15.081724 C44.2428461,16.9993125 43.9210439,19.8701851 43.4755352,23.8458752 C43.3212464,25.220698 43.1468451,26.7773612 43.0410471,28.4607615 C42.4084632,38.5033051 48.3370079,45.7493654 48.3956928,45.8209995 C51.9379968,50.0391433 56.3018884,58.7895188 54.4181883,64.1758488 C53.6285605,66.4323215 51.8627811,67.853982 49.1701671,68.3967478 C48.0967583,68.6144051 47.1173004,68.719101 46.2158133,68.719101 C39.7128186,68.719101 37.3312618,63.3245056 34.1845981,56.1914067 Z" id="path-11"></path>
        <path d="M39.9533437,66.2973189 L41.1072031,66.2367054 C41.0504469,65.1539291 39.5946224,39.5971021 29.334146,32.1196087 C18.0771296,23.9119989 14.5279376,15.0954997 12.8379249,9.17742464 C10.8459471,2.20136965 0.708350608,0.338884188 0.277995241,0.26173982 L0.0768688525,1.39961925 C0.175227922,1.41890534 9.93399048,3.21526705 11.7267705,9.49426758 C13.4638964,15.577652 17.1086922,24.636605 28.6533469,33.0508514 C38.4741005,40.2115019 39.9398435,66.0383342 39.9533437,66.2973189" id="path-13"></path>
        <path d="M8.50351348,0.327863564 C15.7964114,-2.17381809 14.2813511,11.8829878 17.3629931,22.2837017 C20.4443596,32.6844157 51.6445727,26.8214437 38.5482142,52.8631782 C25.4518556,78.9049127 55.11111,61.5722263 46.2519059,84.2995082 C37.3927017,107.024035 45.4815643,131.330021 35.851743,125.147451 C26.2221973,118.964881 30.4417187,90.3470756 20.4270021,86.9472131 C10.41201,83.5473506 8.77765151,79.579926 18.6937335,70.3363776 C28.6095399,61.090074 -7.28931623,51.9126494 1.56988789,33.2464675 C10.4293675,14.5802856 0.0776953993,3.21526705 8.50351348,0.327863564" id="path-15"></path>
        <polyline id="path-17" points="44.2968472 0.00826546801 33.8845616 39.5116922 10.6153406 39.5116922 0.203054997 0.00826546801 44.2968472 0.00826546801"></polyline>
        <path d="M44.2968472,0.00826546801 C44.2968472,0.00826546801 21.3745003,4.31181914 21.3745003,39.5116922 L10.6153406,39.5116922 L0.203054997,0.00826546801 L44.2968472,0.00826546801" id="path-19"></path>
        <path d="M151.486742,24.5379704 C138.565061,24.5387969 127.335045,19.5144944 115.625632,14.2780449 C101.172084,7.81307139 86.2253622,1.12823638 66.3110947,2.95848652 C53.5946721,4.12749921 45.6129852,8.78536594 38.5708065,12.8946811 C32.1945489,16.6157948 26.1659921,19.8878181 18.0013628,20.1671909 C4.80636965,20.618761 0.228953464,15.5572639 0.152360127,15.2484109 L0.152360127,12.0003575 C0.168891063,12.0562871 3.04968218,17.7374188 17.9873115,17.670193 C25.343578,17.6368556 30.7728884,14.4684262 37.0596034,10.799936 C44.365175,6.53660762 52.6457964,1.70461502 66.0300687,0.474437864 C86.7405764,-1.42965045 102.053733,5.41884082 116.862697,12.0419603 C132.357694,18.9722797 147.144617,25.4711417 165.841105,19.832715 L165.841105,22.5032877 C160.509878,24.1103702 156.247652,24.5376949 151.486742,24.5379704" id="path-21"></path>
        <path d="M73.9346113,31.3545019 C64.3990164,31.3553284 56.8350111,25.5863072 49.4299783,19.939615 C43.8152459,15.6581026 37.9902951,11.2804352 31.2660613,9.12121946 C10.7448329,2.53143733 0.246310947,14.5643057 0.152360127,14.6703792 L0.152360127,11.0098789 C0.263117398,10.8847948 2.13607245,8.69747647 7.55381121,6.60934373 C12.4866425,4.70801058 20.7625801,3.1912972 32.1782935,6.76253041 C39.4103025,9.02506452 45.4168181,13.6052359 51.2255135,18.0347002 C63.0076626,27.0200904 73.1852089,34.7797118 90.8567795,22.6250656 C104.244082,13.4192628 116.859942,4.64629508 129.274675,1.4412221 C141.419402,-1.69331888 154.079344,0.601450555 165.92927,11.259496 L165.841105,14.5835918 C140.67,-8.15608831 119.234886,6.25089794 92.542935,24.6087779 C85.4732047,29.4713527 79.3815547,31.3539508 73.9346113,31.3545019" id="path-23"></path>
    </defs>
    <g id="Page-1" stroke="none" stroke-width="1" fill="none" fill-rule="evenodd">
        <g id="Login-Copy" transform="translate(-732.000000, -276.000000)">
            <g id="Bitmap" transform="translate(732.000000, -1.000000)">
                <g id="Group-4" transform="translate(-16.000000, 277.000000)">
                    <path d="M712.092289,251.550823 C687.632353,225.703532 671.133285,206.917294 677.483937,173.673657 C687.862383,119.352633 692.305134,-16.1246179 529.801943,1.58390046 C471.556805,7.93246317 425.530359,47.4308613 392.047355,86.8614031 C363.555115,120.410394 312.303363,123.370129 271.048927,131.191574 C220.363231,140.801235 168.732605,155.320503 121.83565,176.591482 C25.2543096,220.39876 -3.59199701,283.373468 0.347843316,363.950919 C1.5363355,388.293396 5.43107176,426.640231 51.8995376,471.509262 C114.616744,532.069082 205.756279,540.179915 315.449372,512.366784 C340.558806,506.000259 364.292567,496.015393 388.993809,488.499301 C414.653513,480.689831 441.352866,475.558691 468.363437,473.247583 C491.328174,471.281744 514.599617,471.329642 537.830467,471.375545 C578.32941,471.457372 618.702061,471.537203 657.11043,460.959591 C689.066662,452.15822 718.415879,436.050314 741.527203,414.627657 C770.396062,387.870291 780.661748,350.565251 766.548685,315.742955 C753.177584,282.750786 732.12075,272.710038 712.092289,251.550823 Z" id="Fill-4-Copy" fill="#FFFFFF" opacity="0.241141183"></path>
                    <g id="Group-6" transform="translate(73.000000, 26.000000)">
                        <g id="Group-5" transform="translate(37.194606, 150.982549)">
                            <mask id="mask-2" fill="white">
                                <use xlink:href="#path-1"></use>
                            </mask>
                            <g id="Clip-4"></g>
                            <path d="M95.1925685,49.6220127 C102.123439,64.7475436 106.018403,79.0597525 100.914476,85.4442755 C100.612787,85.8211809 100.283546,86.1672285 99.9270286,86.4821428 C95.9956965,89.9448228 88.2644532,90.0219672 75.2113506,84.8676214 C40.4721396,71.1450159 38.8231787,47.4630724 31.7969799,24.3365685 C24.8705177,1.49963141 0.675013221,5.35822739 0.0581337916,5.46154574 C56.4349625,-14.1761042 83.4332871,23.9803268 95.1925685,49.6220127" id="Fill-3" fill="#F7594D" mask="url(#mask-2)"></path>
                        </g>
                        <g id="Group-8" transform="translate(86.511898, 171.921735)">
                            <mask id="mask-4" fill="white">
                                <use xlink:href="#path-3"></use>
                            </mask>
                            <g id="Clip-7"></g>
                            <path d="M51.597184,64.5050899 C51.2954944,64.8819952 50.9662533,65.2280428 50.6097361,65.5429572 C44.0841491,61.6121761 31.5892411,53.2778292 25.6978911,43.9213194 C22.9193162,39.5048043 20.5843215,34.5397377 18.1066097,29.2873083 C13.4327631,19.3519402 8.58947435,9.07851454 0.139961925,1.19959492 L1.08194976,0.18349339 C9.72487414,8.25031465 14.6194088,18.6438652 19.3541444,28.7001846 C21.8098149,33.9170724 24.1271766,38.8421893 26.8671793,43.1829376 C32.6116795,52.3104939 45.2363554,60.6776272 51.597184,64.5050899" id="Fill-6" fill="#FFA7A7" mask="url(#mask-4)"></path>
                        </g>
                        <g id="Group-11" transform="translate(84.583289, 118.747224)">
                            <mask id="mask-6" fill="white">
                                <use xlink:href="#path-5"></use>
                            </mask>
                            <g id="Clip-10"></g>
                            <path d="M41.767614,88.0374283 C41.3587488,89.0438868 41.0942538,89.6136531 41.0653247,89.6775727 C40.9587002,89.1218577 40.8548308,88.570551 40.7493083,88.0379794 C36.1148604,64.2926674 29.917688,61.8116494 11.3358139,41.0399773 C-7.66732364,19.7955204 3.26100264,0.004132734 3.26100264,0.004132734 C66.9249434,18.3983808 46.0940354,77.4223633 41.767614,88.0374283" id="Fill-9" fill="#FFA7A7" mask="url(#mask-6)"></path>
                        </g>
                        <g id="Group-14" transform="translate(103.318350, 143.543628)">
                            <mask id="mask-8" fill="white">
                                <use xlink:href="#path-7"></use>
                            </mask>
                            <g id="Clip-13"></g>
                            <path d="M23.0325531,63.2410243 C22.623688,64.2474828 22.359193,64.8172491 22.3302639,64.8811687 C22.2236393,64.3254537 22.11977,63.774147 22.0142475,63.2415754 C24.0764818,42.7137345 11.692331,18.6251301 7.8009487,14.3033924 C3.77456372,9.8265394 1.29354574,3.6717964 0.356792702,1.35250608 C0.198922263,0.968161819 0.0512459016,0.601450555 0.0030306716,0.516316235 L0.900936013,0.00909201481 C0.979733474,0.148227393 1.08250079,0.40390587 1.31172977,0.967335272 C2.22754363,3.2389614 4.66337705,9.27137546 8.56963723,13.6088176 C13.5008154,19.0904759 24.9253453,43.2942459 23.0325531,63.2410243" id="Fill-12" fill="#F7594D" mask="url(#mask-8)"></path>
                        </g>
                        <path d="M487.417403,109.17471 L479.570719,96.3287948 C478.926013,95.2752232 479.259387,93.8995738 480.311856,93.2565204 C481.367081,92.6131914 482.741904,92.9457388 483.383855,93.9987594 L488.932739,103.08306 L503.683845,94.3527969 C504.74458,93.7240703 506.116647,94.0756282 506.744823,95.1380164 C507.372998,96.200129 507.023094,97.5708191 505.959603,98.1995457 L487.417403,109.17471" id="Fill-15" fill="#FFFFFF"></path>
                        <path d="M492.685262,76.5748773 C479.347552,76.5748773 468.497747,87.4246816 468.497747,100.761014 C468.497747,114.097347 479.347552,124.946876 492.685262,124.946876 C506.020217,124.946876 516.870021,114.097347 516.870021,100.761014 C516.870021,87.4246816 506.020217,76.5748773 492.685262,76.5748773 Z M492.685262,128.977944 C477.124141,128.977944 464.466954,116.319656 464.466954,100.761014 C464.466954,85.2020973 477.124141,72.5438086 492.685262,72.5438086 C508.243628,72.5438086 520.900814,85.2020973 520.900814,100.761014 C520.900814,116.319656 508.243628,128.977944 492.685262,128.977944 Z" id="Fill-16" fill="#FFFFFF"></path>
                        <path d="M400.029365,67.6735193 L395.180291,59.7350883 C394.783548,59.0840449 394.990185,58.2338038 395.640402,57.8362348 C396.290619,57.4389413 397.141962,57.6444759 397.538704,58.2949683 L400.968874,63.9088741 L410.08293,58.5140032 C410.738657,58.1255262 411.587245,58.3426325 411.975722,58.9991861 C412.364199,59.6554643 412.146542,60.5026748 411.490814,60.8911518 L400.029365,67.6735193" id="Fill-17" fill="#FFFFFF"></path>
                        <path d="M403.28596,47.5275431 C395.045288,47.5275431 388.339238,54.2324907 388.339238,62.4739889 C388.339238,70.715487 395.045288,77.4204347 403.28596,77.4204347 C411.526631,77.4204347 418.232681,70.715487 418.232681,62.4739889 C418.232681,54.2324907 411.526631,47.5275431 403.28596,47.5275431 Z M403.28596,79.9113712 C393.670465,79.9113712 385.848577,72.0889323 385.848577,62.4739889 C385.848577,52.85877 393.670465,45.036331 403.28596,45.036331 C412.901454,45.036331 420.723342,52.85877 420.723342,62.4739889 C420.723342,72.0889323 412.901454,79.9113712 403.28596,79.9113712 Z" id="Fill-18" fill="#FFFFFF"></path>
                        <path d="M310.362813,38.3713332 L302.923892,26.1935436 C302.315003,25.1950751 302.62909,23.8907842 303.629212,23.2810682 C304.626579,22.6713522 305.929767,22.986542 306.541412,23.9847351 L311.801005,32.5965262 L325.783421,24.3205886 C326.789053,23.7246483 328.089487,24.0577467 328.684601,25.0647562 C329.28247,26.0717657 328.949096,27.3710973 327.940709,27.9670375 L310.362813,38.3713332" id="Fill-19" fill="#FFFFFF"></path>
                        <path d="M315.355156,7.46757483 C302.7145,7.46757483 292.426748,17.7528477 292.426748,30.3951565 C292.426748,43.0377409 302.7145,53.3230137 315.355156,53.3230137 C327.998567,53.3230137 338.283564,43.0377409 338.283564,30.3951565 C338.283564,17.7528477 327.998567,7.46757483 315.355156,7.46757483 Z M315.355156,57.1441396 C300.606806,57.1441396 288.605346,45.1446087 288.605346,30.3951565 C288.605346,15.6459799 300.606806,3.64617345 315.355156,3.64617345 C330.106261,3.64617345 342.104966,15.6459799 342.104966,30.3951565 C342.104966,45.1446087 330.106261,57.1441396 315.355156,57.1441396 Z" id="Fill-20" fill="#FFFFFF"></path>
                        <path d="M231.689334,67.562211 L226.774135,59.5155024 C226.371883,58.8556425 226.578519,57.9941052 227.239757,57.5910259 C227.898239,57.1879466 228.760603,57.3962364 229.162856,58.0558207 L232.639863,63.7463199 L241.880656,58.2778863 C242.544648,57.883899 243.404257,58.104036 243.798244,58.7696816 C244.192232,59.4350518 243.971819,60.2935584 243.305071,60.6875457 L231.689334,67.562211" id="Fill-21" fill="#FFFFFF"></path>
                        <path d="M234.990011,47.1418213 C226.636378,47.1418213 219.839408,53.9379646 219.839408,62.2918731 C219.839408,70.6457816 226.636378,77.4422004 234.990011,77.4422004 C243.343644,77.4422004 250.140613,70.6457816 250.140613,62.2918731 C250.140613,53.9379646 243.343644,47.1418213 234.990011,47.1418213 Z M234.990011,79.9670254 C225.242269,79.9670254 217.31293,72.0379619 217.31293,62.2918731 C217.31293,52.5457842 225.242269,44.6167208 234.990011,44.6167208 C244.734997,44.6167208 252.664336,52.5457842 252.664336,62.2918731 C252.664336,72.0379619 244.734997,79.9670254 234.990011,79.9670254 Z" id="Fill-22" fill="#FFFFFF"></path>
                        <path d="M162.640992,28.9087499 L156.488728,18.835624 C155.983984,18.0093527 156.244897,16.9307091 157.070893,16.4265156 C157.896888,15.9220465 158.975256,16.1826843 159.480001,17.0084045 L163.830668,24.1318604 L175.397088,17.2861243 C176.230247,16.7932269 177.305034,17.0687425 177.797931,17.9016261 C178.290829,18.7347853 178.015313,19.8095717 177.182429,20.3024691 L162.640992,28.9087499" id="Fill-23" fill="#FFFFFF"></path>
                        <path d="M166.772072,3.34558593 C156.314602,3.34558593 147.806681,11.8535077 147.806681,22.3109778 C147.806681,32.7687234 156.314602,41.2763696 166.772072,41.2763696 C177.229543,41.2763696 185.737464,32.7687234 185.737464,22.3109778 C185.737464,11.8535077 177.229543,3.34558593 166.772072,3.34558593 Z M166.772072,44.4373601 C154.571415,44.4373601 144.64569,34.5113596 144.64569,22.3109778 C144.64569,10.110596 154.571415,0.184595452 166.772072,0.184595452 C178.972454,0.184595452 188.898179,10.110596 188.898179,22.3109778 C188.898179,34.5113596 178.972454,44.4373601 166.772072,44.4373601 Z" id="Fill-24" fill="#FFFFFF"></path>
                        <path d="M84.2669974,78.9867409 L77.4460576,67.8189915 C76.8862099,66.9031777 77.1755013,65.7071645 78.0913152,65.1478678 C79.007129,64.5888466 80.2028667,64.8778625 80.7621634,65.7934008 L85.585615,73.69078 L98.4089376,66.1011518 C99.3321904,65.5548043 100.524071,65.8600756 101.070694,66.7836039 C101.617041,67.7071322 101.311494,68.8987372 100.387966,69.4453601 L84.2669974,78.9867409" id="Fill-25" fill="#FFFFFF"></path>
                        <path d="M88.8466177,50.6461042 C77.2526457,50.6461042 67.8203691,60.0783808 67.8203691,71.6720772 C67.8203691,83.2657737 77.2526457,92.6983258 88.8466177,92.6983258 C100.440314,92.6983258 109.872591,83.2657737 109.872591,71.6720772 C109.872591,60.0783808 100.440314,50.6461042 88.8466177,50.6461042 Z M88.8466177,96.2026087 C75.3204548,96.2026087 64.3158107,85.1982401 64.3158107,71.6720772 C64.3158107,58.1459143 75.3204548,47.1418213 88.8466177,47.1418213 C102.372505,47.1418213 113.376874,58.1459143 113.376874,71.6720772 C113.376874,85.1982401 102.372505,96.2026087 88.8466177,96.2026087 Z" id="Fill-26" fill="#FFFFFF"></path>
                        <path d="M458.493776,33.0679334 L454.617271,26.7178498 C454.297673,26.1968498 454.462983,25.5171528 454.983707,25.1989323 C455.504432,24.8809873 456.184955,25.0454701 456.501798,25.5659191 L459.245933,30.0565479 L466.536076,25.741147 C467.062311,25.4300899 467.740079,25.6039402 468.051412,26.129073 C468.359989,26.6542057 468.186415,27.3319741 467.662935,27.6427557 L458.493776,33.0679334" id="Fill-27" fill="#FFFFFF"></path>
                        <path d="M461.100153,16.9527504 C454.507065,16.9527504 449.142776,22.3162126 449.142776,28.9087499 C449.142776,35.5012871 454.507065,40.8647493 461.100153,40.8647493 C467.690487,40.8647493 473.054775,35.5012871 473.054775,28.9087499 C473.054775,22.3162126 467.690487,16.9527504 461.100153,16.9527504 Z M461.100153,42.8575537 C453.407758,42.8575537 447.150799,36.6000434 447.150799,28.9087499 C447.150799,21.2174564 453.407758,14.9602216 461.100153,14.9602216 C468.789794,14.9602216 475.046753,21.2174564 475.046753,28.9087499 C475.046753,36.6000434 468.789794,42.8575537 461.100153,42.8575537 Z" id="Fill-28" fill="#FFFFFF"></path>
                        <polygon id="Fill-29" fill="#FFBDB8" points="263.299238 420.089656 301.772237 420.089656 301.772237 303.23798 263.299238 303.23798"></polygon>
                        <path d="M133.329713,359.525817 L431.741211,359.525817 C441.072924,359.525817 448.638583,351.962914 448.638583,342.6312 L448.638583,142.070446 C448.638583,132.738732 441.072924,125.173901 431.741211,125.173901 L133.329713,125.173901 C123.998276,125.173901 116.433444,132.738732 116.433444,142.070446 L116.433444,342.6312 C116.433444,351.962914 123.998276,359.525817 133.329713,359.525817" id="Fill-30" fill="#F0F0F0"></path>
                        <polygon id="Fill-31" fill="#FFFFFF" points="129.443566 322.802343 435.625981 322.802343 435.625981 100.231198 129.443566 100.231198"></polygon>
                        <polygon id="Fill-32" fill="#FFBDB8" points="129.443566 127.11353 435.625981 127.11353 435.625981 100.231198 129.443566 100.231198"></polygon>
                        <path d="M398.368006,339.606039 C398.368006,345.524114 404.007811,350.323596 410.967335,350.323596 C417.926859,350.323596 423.566663,345.524114 423.566663,339.606039 C423.566663,333.687964 417.926859,328.891237 410.967335,328.891237 C404.007811,328.891237 398.368006,333.687964 398.368006,339.606039" id="Fill-34" fill="#CCCCCC"></path>
                        <polygon id="Fill-35" fill="#FFA7A7" points="195.995737 424.500661 369.075188 424.500661 369.075188 415.678652 195.995737 415.678652"></polygon>
                        <path d="M182.250539,118.751356 L145.883582,118.751356 C143.866808,118.751356 142.231898,117.116722 142.231898,115.099673 L142.231898,112.24478 C142.231898,110.228281 143.866808,108.593372 145.883582,108.593372 L182.250539,108.593372 C184.267589,108.593372 185.902223,110.228281 185.902223,112.24478 L185.902223,115.099673 C185.902223,117.116722 184.267589,118.751356 182.250539,118.751356" id="Fill-36" fill="#F5F7FF"></path>
                        <polygon id="Fill-37" fill="#E6E6E6" points="151.876046 226.290054 312.181216 226.290054 312.181216 220.779742 151.876046 220.779742"></polygon>
                        <polygon id="Fill-38" fill="#E6E6E6" points="151.876046 236.214126 270.773977 236.214126 270.773977 230.70409 151.876046 230.70409"></polygon>
                        <polygon id="Fill-39" fill="#E6E6E6" points="151.876046 257.777906 227.267308 257.777906 227.267308 252.267594 151.876046 252.267594"></polygon>
                        <polygon id="Fill-40" fill="#E6E6E6" points="151.876046 267.704733 287.321444 267.704733 287.321444 262.194421 151.876046 262.194421"></polygon>
                        <polygon id="Fill-41" fill="#E6E6E6" points="151.876046 291.415605 278.758419 291.415605 278.758419 285.905293 151.876046 285.905293"></polygon>
                        <polygon id="Fill-42" fill="#E6E6E6" points="151.876046 301.339677 306.814172 301.339677 306.814172 295.829365 151.876046 295.829365"></polygon>
                        <polygon id="Fill-43" fill="#F7594D" points="144.053607 236.214126 148.081645 236.214126 148.081645 220.779742 144.053607 220.779742"></polygon>
                        <polygon id="Fill-44" fill="#F7594D" points="144.053607 267.704733 148.081645 267.704733 148.081645 252.267594 144.053607 252.267594"></polygon>
                        <polygon id="Fill-45" fill="#F7594D" points="144.053607 301.339677 148.081645 301.339677 148.081645 285.905293 144.053607 285.905293"></polygon>
                        <path d="M365.421851,308.290936 L352.582824,308.290936 C350.031549,308.290936 347.962427,306.221814 347.962427,303.670539 L347.962427,290.831512 C347.962427,288.280238 350.031549,286.211116 352.582824,286.211116 L365.421851,286.211116 C367.973125,286.211116 370.042247,288.280238 370.042247,290.831512 L370.042247,303.670539 C370.042247,306.221814 367.973125,308.290936 365.421851,308.290936" id="Fill-46" fill="#F7594D"></path>
                        <path d="M358.302528,302.113876 L352.720582,297.248271 C352.263226,296.848773 352.216388,296.154474 352.615886,295.697118 C353.015383,295.239762 353.709683,295.192924 354.167039,295.589667 L358.112422,299.030857 L363.741206,292.754611 C364.146214,292.302766 364.843268,292.264194 365.295114,292.669201 C365.746959,293.074209 365.785531,293.768509 365.380524,294.220354 L358.302528,302.113876" id="Fill-47" fill="#F3F3F3"></path>
                        <path d="M352.982322,253.96477 C350.982078,253.96477 349.353781,255.593067 349.353781,257.596066 L349.353781,269.633342 C349.353781,271.633585 350.982078,273.261883 352.982322,273.261883 L365.022353,273.261883 C367.022597,273.261883 368.650894,271.633585 368.650894,269.633342 L368.650894,257.596066 C368.650894,255.593067 367.022597,253.96477 365.022353,253.96477 L352.982322,253.96477 Z M365.022353,274.664257 L352.982322,274.664257 C350.207879,274.664257 347.951407,272.407784 347.951407,269.633342 L347.951407,257.596066 C347.951407,254.821623 350.207879,252.562396 352.982322,252.562396 L365.022353,252.562396 C367.796795,252.562396 370.053268,254.821623 370.053268,257.596066 L370.053268,269.633342 C370.053268,272.407784 367.796795,274.664257 365.022353,274.664257 Z" id="Fill-48" fill="#F7594D"></path>
                        <path d="M386.226034,287.60247 C384.225791,287.60247 382.597493,289.230767 382.597493,291.233765 L382.597493,303.268287 C382.597493,305.271285 384.225791,306.899582 386.226034,306.899582 L398.266066,306.899582 C400.266309,306.899582 401.894606,305.271285 401.894606,303.268287 L401.894606,291.233765 C401.894606,289.230767 400.266309,287.60247 398.266066,287.60247 L386.226034,287.60247 Z M398.266066,308.301957 L386.226034,308.301957 C383.451592,308.301957 381.195119,306.045484 381.195119,303.268287 L381.195119,291.233765 C381.195119,288.459323 383.451592,286.200095 386.226034,286.200095 L398.266066,286.200095 C401.040508,286.200095 403.29698,288.459323 403.29698,291.233765 L403.29698,303.268287 C403.29698,306.045484 401.040508,308.301957 398.266066,308.301957 Z" id="Fill-49" fill="#F7594D"></path>
                        <path d="M398.665563,274.653236 L385.826536,274.653236 C383.275262,274.653236 381.20614,272.584114 381.20614,270.03284 L381.20614,257.193813 C381.20614,254.642538 383.275262,252.573416 385.826536,252.573416 L398.665563,252.573416 C401.216838,252.573416 403.28596,254.642538 403.28596,257.193813 L403.28596,270.03284 C403.28596,272.584114 401.216838,274.653236 398.665563,274.653236" id="Fill-50" fill="#F7594D"></path>
                        <path d="M391.54624,268.476177 L385.964294,263.610571 C385.506938,263.211074 385.4601,262.516774 385.859598,262.059418 C386.256341,261.602062 386.953395,261.555225 387.410751,261.951967 L391.356134,265.395912 L396.984918,259.116912 C397.389926,258.665066 398.08698,258.626494 398.538826,259.031502 C398.990672,259.43651 399.029244,260.130809 398.624236,260.582655 L391.54624,268.476177" id="Fill-51" fill="#F3F3F3"></path>
                        <path d="M386.226034,220.326519 C384.225791,220.326519 382.597493,221.955643 382.597493,223.95809 L382.597493,235.995091 C382.597493,237.996712 384.225791,239.626938 386.226034,239.626938 L398.266066,239.626938 C400.266309,239.626938 401.894606,237.996712 401.894606,235.995091 L401.894606,223.95809 C401.894606,221.955643 400.266309,220.326519 398.266066,220.326519 L386.226034,220.326519 Z M398.266066,241.026557 L386.226034,241.026557 C383.451592,241.026557 381.195119,238.770085 381.195119,235.995091 L381.195119,223.95809 C381.195119,221.183097 383.451592,218.925798 386.226034,218.925798 L398.266066,218.925798 C401.040508,218.925798 403.29698,221.183097 403.29698,223.95809 L403.29698,235.995091 C403.29698,238.770085 401.040508,241.026557 398.266066,241.026557 Z" id="Fill-52" fill="#F7594D"></path>
                        <path d="M365.421851,241.015537 L352.582824,241.015537 C350.031549,241.015537 347.962427,238.946415 347.962427,236.395967 L347.962427,223.556664 C347.962427,221.005114 350.031549,218.936543 352.582824,218.936543 L365.421851,218.936543 C367.973125,218.936543 370.042247,221.005114 370.042247,223.556664 L370.042247,236.395967 C370.042247,238.946415 367.973125,241.015537 365.421851,241.015537" id="Fill-53" fill="#F7594D"></path>
                        <path d="M358.302528,234.839579 L352.720582,229.973423 C352.263226,229.5742 352.216388,228.879626 352.615886,228.421994 C353.015383,227.964363 353.709683,227.916974 354.167039,228.315921 L358.112422,231.756835 L363.741206,225.478661 C364.146214,225.02654 364.843268,224.988519 365.295114,225.394078 C365.746959,225.799361 365.785531,226.494487 365.380524,226.946608 L358.302528,234.839579" id="Fill-54" fill="#F3F3F3"></path>
                        <g id="Group-57" transform="translate(38.572184, 248.790587)">
                            <mask id="mask-10" fill="white">
                                <use xlink:href="#path-9"></use>
                            </mask>
                            <g id="Clip-56"></g>
                            <path d="M55.3626557,0.438069804 C50.1504516,-2.05534638 44.9627684,14.5389582 44.9627684,14.5389582 C36.1035643,26.2456161 23.7224442,10.6707192 24.9330598,28.1714701 C27.0514992,58.7922739 -10.3144775,37.8007403 6.92398255,69.7715706 C24.1624426,101.742401 -8.29742782,87.8481491 2.41544527,113.628144 C13.1283184,139.405383 -0.756841354,170.152924 15.3621988,157.517779 C15.3621988,157.517779 29.5551095,126.392782 44.1921512,116.763511 C58.8294685,107.134241 35.4233162,95.7086092 40.0029365,82.6298837 C46.6547097,63.633083 62.6814521,64.3769751 51.1255013,43.9640243 C39.5701015,23.5483184 73.081615,8.91017451 55.3626557,0.438069804" id="Fill-55" fill="#E55247" mask="url(#mask-10)"></path>
                        </g>
                        <path d="M48.8299053,394.593443 C55.8172565,389.680999 63.994284,355.437166 64.4822221,335.040746 C64.7321148,324.593194 67.8203691,320.242803 70.5452184,316.402115 C73.1496674,312.729492 75.3989767,309.561063 74.0886245,302.281941 C71.5847388,288.368403 78.168184,282.364918 78.2348588,282.30706 L77.4727827,281.43643 C77.1799096,281.69266 70.3237039,287.886251 72.9512961,302.485822 C74.1756875,309.288302 72.1575357,312.131623 69.6026795,315.732612 C66.9216372,319.512686 63.5851433,324.212983 63.3269852,335.013194 C62.80323,356.902909 54.4432602,389.234664 48.1653617,393.648424 L48.8299053,394.593443" id="Fill-58" fill="#FFFFFF"></path>
                        <g id="Group-61" transform="translate(0.000000, 328.414595)">
                            <mask id="mask-12" fill="white">
                                <use xlink:href="#path-11"></use>
                            </mask>
                            <g id="Clip-60"></g>
                            <path d="M12.4621216,3.31996298 C8.32387731,1.06073506 3.88559651,0.60613432 2.13965415,2.26198308 C0.812495505,3.51833421 1.43846695,5.67286621 2.19723691,7.25983607 C3.64479588,10.2877525 5.47559704,12.1557483 7.090945,13.8033316 C9.33667266,16.0928662 11.1104421,17.9030037 10.2111592,21.4185828 C10.0345537,22.1073718 9.83122316,22.8044262 9.62679059,23.5014807 C8.19961978,28.3836171 6.85124643,32.9957483 14.3246071,36.3542834 C16.0796415,37.1450132 17.688377,37.7759439 19.1078334,38.3324855 C25.0206737,40.6523268 28.9272094,42.1869487 33.114771,51.0254892 C33.8942047,52.6703173 34.579412,54.2242253 35.242027,55.7257853 C38.8565161,63.9168641 41.0385997,68.8623691 48.9409381,67.2643786 C51.2059519,66.8070227 52.6818889,65.6388366 53.327422,63.7928821 C54.987128,59.0457483 51.0158461,50.7361978 47.5096346,46.5621364 C47.252854,46.253559 41.2251237,38.9055579 41.8874632,28.3891274 C41.9954654,26.6781756 42.1715198,25.1049815 42.3271861,23.7163829 C42.739082,20.0382496 43.0369143,17.3822792 41.6725611,15.8504125 C40.425302,14.4480381 37.6946668,13.811597 32.8196938,13.7895558 C23.029798,13.7427181 19.1651407,9.69539397 16.0598043,6.44430989 C14.817229,5.14387626 13.7443712,4.01977261 12.4621216,3.31996298 Z M34.1845981,56.1914067 C33.5252893,54.6981121 32.8428371,53.1524696 32.0702914,51.5214172 C28.0788969,43.093395 24.5432052,41.7075516 18.685468,39.4069963 C17.2541645,38.8476996 15.6316531,38.2112586 13.8507203,37.4095082 C5.45961713,33.6376996 7.08433263,28.08055 8.51811581,23.1791274 C8.71841565,22.4930936 8.91843998,21.8070598 9.09173929,21.1320465 C9.82984558,18.2473982 8.41176679,16.8009413 6.26550026,14.6105923 C4.67026494,12.9850502 2.68517504,10.9572554 1.15468588,7.7585193 C-0.520173453,4.25671602 0.333649392,2.38045479 1.34479164,1.4216605 C3.47342517,-0.595113696 8.38201111,-0.223167636 13.015908,2.30606557 C14.4557525,3.09128503 15.6410206,4.33386039 16.8954432,5.6480698 C19.8497969,8.74210999 23.5265526,12.5910629 32.8252041,12.6351454 C38.1275019,12.6599418 41.0314363,13.3900582 42.5357515,15.081724 C44.2428461,16.9993125 43.9210439,19.8701851 43.4755352,23.8458752 C43.3212464,25.220698 43.1468451,26.7773612 43.0410471,28.4607615 C42.4084632,38.5033051 48.3370079,45.7493654 48.3956928,45.8209995 C51.9379968,50.0391433 56.3018884,58.7895188 54.4181883,64.1758488 C53.6285605,66.4323215 51.8627811,67.853982 49.1701671,68.3967478 C48.0967583,68.6144051 47.1173004,68.719101 46.2158133,68.719101 C39.7128186,68.719101 37.3312618,63.3245056 34.1845981,56.1914067 Z" id="Fill-59" fill="#FFA7A7" mask="url(#mask-12)"></path>
                        </g>
                        <g id="Group-64" transform="translate(9.092015, 337.506610)">
                            <mask id="mask-14" fill="white">
                                <use xlink:href="#path-13"></use>
                            </mask>
                            <g id="Clip-63"></g>
                            <path d="M39.9533437,66.2973189 L41.1072031,66.2367054 C41.0504469,65.1539291 39.5946224,39.5971021 29.334146,32.1196087 C18.0771296,23.9119989 14.5279376,15.0954997 12.8379249,9.17742464 C10.8459471,2.20136965 0.708350608,0.338884188 0.277995241,0.26173982 L0.0768688525,1.39961925 C0.175227922,1.41890534 9.93399048,3.21526705 11.7267705,9.49426758 C13.4638964,15.577652 17.1086922,24.636605 28.6533469,33.0508514 C38.4741005,40.2115019 39.9398435,66.0383342 39.9533437,66.2973189" id="Fill-62" fill="#FFA7A7" mask="url(#mask-14)"></path>
                        </g>
                        <g id="Group-67" transform="translate(17.081967, 274.689053)">
                            <mask id="mask-16" fill="white">
                                <use xlink:href="#path-15"></use>
                            </mask>
                            <g id="Clip-66"></g>
                            <path d="M8.50351348,0.327863564 C15.7964114,-2.17381809 14.2813511,11.8829878 17.3629931,22.2837017 C20.4443596,32.6844157 51.6445727,26.8214437 38.5482142,52.8631782 C25.4518556,78.9049127 55.11111,61.5722263 46.2519059,84.2995082 C37.3927017,107.024035 45.4815643,131.330021 35.851743,125.147451 C26.2221973,118.964881 30.4417187,90.3470756 20.4270021,86.9472131 C10.41201,83.5473506 8.77765151,79.579926 18.6937335,70.3363776 C28.6095399,61.090074 -7.28931623,51.9126494 1.56988789,33.2464675 C10.4293675,14.5802856 0.0776953993,3.21526705 8.50351348,0.327863564" id="Fill-65" fill="#FFA7A7" mask="url(#mask-16)"></path>
                        </g>
                        <path d="M48.4656737,398.748218 C49.3825896,394.857938 57.2152226,360.619614 49.9071713,356.48137 C43.4658921,352.833543 43.6245891,338.647245 44.6293945,325.248921 C45.5187589,313.39073 30.287981,307.847356 29.6391417,307.615923 L29.2525933,308.706965 C29.4033004,308.759313 44.3001534,314.184215 43.4769127,325.163511 C42.4451068,338.920005 42.3343496,353.519577 49.3376806,357.487002 C54.8873913,360.630635 49.7779545,388.146378 47.3407435,398.483723 L48.4656737,398.748218" id="Fill-68" fill="#FFFFFF"></path>
                        <g id="Group-71" transform="translate(31.684294, 386.548387)">
                            <mask id="mask-18" fill="white">
                                <use xlink:href="#path-17"></use>
                            </mask>
                            <g id="Clip-70"></g>
                            <polyline id="Fill-69" fill="#FFA7A7" mask="url(#mask-18)" points="44.2968472 0.00826546801 33.8845616 39.5116922 10.6153406 39.5116922 0.203054997 0.00826546801 44.2968472 0.00826546801"></polyline>
                        </g>
                        <g id="Group-74" transform="translate(31.684294, 386.548387)">
                            <mask id="mask-20" fill="white">
                                <use xlink:href="#path-19"></use>
                            </mask>
                            <g id="Clip-73"></g>
                            <path d="M44.2968472,0.00826546801 C44.2968472,0.00826546801 21.3745003,4.31181914 21.3745003,39.5116922 L10.6153406,39.5116922 L0.203054997,0.00826546801 L44.2968472,0.00826546801" id="Fill-72" fill="#F7594D" mask="url(#mask-20)"></path>
                        </g>
                        <path d="M258.339958,360.341343 C258.339958,360.341343 259.141708,361.652797 259.243649,362.724553 C259.320793,363.573141 260.034379,364.840513 260.342956,365.540323 C260.651534,366.240132 261.646145,369.408562 261.681962,370.232353 C261.695738,370.571237 260.94358,372.695463 261.051031,373.375986 C261.158482,374.05651 261.546959,375.401026 260.935315,375.491946 C260.326425,375.580111 259.634881,374.478049 259.634881,374.478049 C259.634881,374.478049 259.692739,375.103469 259.17477,375.340412 C258.171893,375.806034 257.640148,375.398271 257.640148,375.398271 C257.640148,375.398271 257.268202,376.084305 256.802581,376.17798 C255.777663,376.381861 255.276224,375.971343 255.276224,375.971343 C255.276224,375.971343 254.824379,376.357065 254.116304,376.343289 C253.209857,376.326758 252.829646,375.544294 252.829646,375.544294 C252.829646,375.544294 251.680746,375.775727 251.347372,375.241227 C251.016753,374.703971 251.074611,374.133654 250.936854,373.648747 C250.796341,373.163839 250.901036,368.783141 252.391576,365.625732 C253.87936,362.471079 252.011364,359.396325 252.011364,359.396325 L258.339958,360.341343" id="Fill-75" fill="#EEA886"></path>
                        <path d="M259.79468,374.06753 C259.79468,374.06753 259.896621,370.135923 258.863437,369.298355 C257.827499,368.460788 257.709027,369.879693 257.709027,369.879693 C257.709027,369.879693 257.84954,368.477319 256.719926,368.287213 C255.590312,368.099863 255.540719,369.763977 255.540719,369.763977 C255.540719,369.763977 255.356124,368.683956 254.168652,368.904368 C252.981179,369.127536 253.26496,370.507869 253.26496,370.507869 C253.26496,370.507869 252.129836,369.155087 251.394209,370.455521 C250.151634,372.648625 251.347372,375.241227 251.347372,375.241227 C251.347372,375.241227 251.700032,375.833585 252.829646,375.544294 C252.829646,375.544294 253.584558,377.067895 255.276224,375.971343 C255.276224,375.971343 257.009217,376.924627 257.640148,375.398271 C257.640148,375.398271 259.546716,376.304717 259.79468,374.06753" id="Fill-76" fill="#DB9C7C"></path>
                        <path d="M271.677668,303.706356 C271.677668,303.706356 264.946822,326.138837 262.673818,334.41257 C261.960233,337.007927 260.235505,361.7878 259.929683,362.785167 C259.62386,363.785288 251.088387,365.151846 251.088387,365.151846 C251.088387,365.151846 252.121571,334.15083 252.218001,332.459164 C252.314432,330.767499 261.637879,296.148964 264.348953,294.911898 C266.379503,293.988921 267.454014,294.752099 270.013554,296.653157 C273.603522,299.320148 271.677668,303.706356 271.677668,303.706356" id="Fill-77" fill="#F7594D"></path>
                        <polyline id="Fill-78" fill="#F7594D" points="338.060397 273.429947 337.310994 272.286557 352.715071 262.202686 353.464474 263.346076 338.060397 273.429947"></polyline>
                        <path d="M355.106547,267.999535 C355.106547,267.999535 354.960524,268.872919 354.709804,269.220069 C354.709804,269.220069 354.205611,269.823448 353.872237,270.272538 C353.767541,270.415806 353.679376,270.542544 353.632538,270.630709 C353.428657,270.997144 353.092528,271.862263 352.359656,272.606155 C351.626785,273.352803 348.766933,275.716727 348.766933,275.716727 L346.320354,273.639339 L343.777345,272.50146 C343.777345,272.50146 345.201761,266.313379 345.80514,265.541935 C345.862998,265.464791 345.926367,265.393157 345.98698,265.329788 C346.562808,264.726409 347.243332,264.517017 347.582216,264.235992 C347.706198,264.131296 349.012142,263.189032 349.480518,263.310259 C350.125225,263.478324 350.508191,263.858535 350.654215,264.291095 C350.654215,264.291095 351.907811,264.676816 352.395473,265.409688 C352.395473,265.409688 353.560904,265.729286 353.908054,266.814818 C353.908054,266.814818 355.056954,267.272173 355.106547,267.999535" id="Fill-79" fill="#EFAA88"></path>
                        <path d="M266.216949,456.859968 C266.216949,456.859968 265.602549,461.119439 265.525405,461.758636 C265.451015,462.397832 258.700883,461.381179 258.700883,461.381179 L258.155362,456.311692 C258.155362,456.311692 265.373871,456.259344 266.216949,456.859968" id="Fill-80" fill="#424773"></path>
                        <path d="M265.597039,461.21587 C265.597039,461.21587 267.73504,463.783675 269.804162,464.902269 C271.873284,466.020862 275.121613,466.461687 276.344902,467.621608 C277.226552,468.45642 279.560169,472.054654 270.969593,471.980264 C262.381772,471.90863 258.240772,472.489968 257.32055,471.109635 C256.400328,469.729302 258.654045,460.929334 258.654045,460.929334 C258.654045,460.929334 260.687351,461.65945 265.597039,461.21587" id="Fill-81" fill="#050404"></path>
                        <path d="M314.567181,456.859968 C314.567181,456.859968 313.952782,461.119439 313.875637,461.758636 C313.798493,462.397832 307.051116,461.381179 307.051116,461.381179 L306.505595,456.311692 C306.505595,456.311692 313.721348,456.259344 314.567181,456.859968" id="Fill-82" fill="#424773"></path>
                        <path d="M313.947271,461.21587 C313.947271,461.21587 316.085272,463.783675 318.154395,464.902269 C320.220762,466.020862 327.830502,466.938329 329.053792,468.095494 C329.935442,468.933062 331.40394,472.297107 319.319825,471.980264 C310.734759,471.757097 306.591005,472.489968 305.670783,471.109635 C304.750561,469.729302 307.001523,460.929334 307.001523,460.929334 C307.001523,460.929334 308.919112,461.709043 313.947271,461.21587" id="Fill-83" fill="#050404"></path>
                        <path d="M271.804405,347.441703 C271.804405,347.441703 265.464791,357.517308 265.935923,366.623099 C266.40981,375.728889 263.638123,385.669492 262.684839,395.183046 C261.624104,405.787641 257.279223,430.892623 257.119424,436.565489 C256.96238,442.238355 257.794437,460.350751 257.794437,460.350751 L266.492464,460.549122 C266.492464,460.549122 273.799138,416.659487 275.69193,412.182359 C277.584722,407.702475 286.966029,375.775727 287.282871,372.194024 C287.596959,368.612322 271.804405,347.441703 271.804405,347.441703" id="Fill-84" fill="#D72012"></path>
                        <path d="M305.180365,348.80826 C305.180365,348.80826 309.960561,373.764463 310.591491,379.338144 C311.222422,384.911824 311.641206,406.311121 311.958049,409.793638 C312.272136,413.276155 314.90331,455.270243 315.740878,460.549122 L304.621068,460.549122 C304.621068,460.549122 296.085595,429.947604 296.085595,415.466504 C296.085595,400.985405 289.489751,383.986092 285.233035,374.433966 C280.976319,364.879085 271.231333,364.653162 268.613934,346.926489 C268.613934,346.926489 301.639989,343.184987 305.180365,348.80826" id="Fill-85" fill="#D72012"></path>
                        <path d="M282.384204,262.748207 C282.384204,262.748207 290.894881,259.571512 294.818223,266.048884 C298.74432,272.526256 298.364109,285.49753 294.074331,287.092766 C289.784553,288.685246 283.342998,287.853189 281.144384,283.797599 C278.948525,279.744765 276.967567,273.884548 277.061243,269.969471 C277.157673,266.051639 280.149773,263.880576 282.384204,262.748207" id="Fill-86" fill="#EEA886"></path>
                        <path d="M293.151354,287.387567 C293.151354,287.387567 292.798694,289.685368 293.382787,290.817737 C293.96688,291.950106 282.356653,291.977657 282.356653,291.977657 C282.356653,291.977657 281.414389,285.822639 279.626293,280.620904 C277.840952,275.41917 293.151354,287.387567 293.151354,287.387567" id="Fill-87" fill="#EEA886"></path>
                        <path d="M279.626293,280.620904 C279.626293,280.620904 280.428043,281.943379 283.701169,281.43092 C286.971539,280.915706 290.961005,276.565315 292.327562,276.085918 C293.69412,275.609276 293.707895,274.807525 293.707895,274.807525 L294.561994,276.055611 L296.011206,276.146531 C296.011206,276.146531 294.688731,272.253496 296.686219,270.666526 C298.680952,269.079556 294.614342,258.064442 284.122708,261.731555 C284.122708,261.731555 276.066631,263.95221 276.358678,268.53679 C276.650724,273.118614 277.824421,278.339635 279.626293,280.620904" id="Fill-88" fill="#191312"></path>
                        <path d="M294.071576,290.682734 C294.071576,290.682734 294.035759,288.519937 293.054923,288.310545 C292.074088,288.103908 282.235426,287.158889 281.031423,287.630021 L281.031423,290.150989 C281.031423,290.150989 283.351264,291.57816 294.071576,290.682734" id="Fill-89" fill="#E2D2CA"></path>
                        <path d="M293.490238,273.140656 C293.305643,272.371967 291.352237,270.173353 290.602834,272.526256 C289.856187,274.879159 291.735204,278.042078 292.782163,277.772073 C293.831877,277.499313 293.955859,275.088551 293.490238,273.140656" id="Fill-90" fill="#EEA886"></path>
                        <path d="M310.346282,293.955859 C303.60166,293.065944 294.071576,290.679979 294.071576,290.679979 L281.031423,290.150989 C281.031423,290.150989 269.063025,292.784918 264.348953,294.911898 C263.902618,295.11578 263.899863,305.590883 262.673818,308.337774 L266.580629,316.5812 C266.580629,316.5812 268.839857,332.913765 269.308234,340.176356 C269.523136,343.510095 264.65202,371.441867 264.65202,371.441867 C264.65202,371.441867 269.870286,372.979244 278.769439,373.960079 C287.671348,374.940915 309.908213,373.604664 310.048726,372.552195 C310.189238,371.50248 305.742417,333.409693 305.544045,331.439757 C305.243733,328.41184 306.58825,312.321729 306.58825,312.321729 C308.643596,310.729249 326.687113,302.353575 331.607821,297.989408 C332.924786,296.821222 338.484691,291.40734 340.06615,289.539344 C345.661872,282.92146 350.249207,277.243083 350.808503,276.019794 C351.442189,275.322739 344.584606,271.62532 343.975717,271.424194 C343.441216,271.245108 336.018826,281.094791 333.109381,284.249445 C331.808948,285.654574 326.411597,289.580672 326.411597,289.580672 C326.411597,289.580672 314.567181,294.198313 310.346282,293.955859" id="Fill-91" fill="#F7594D"></path>
                        <path d="M279.959667,263.514141 C279.959667,263.514141 269.109863,264.362729 279.626293,280.620904 L279.959667,263.514141" id="Fill-92" fill="#191312"></path>
                        <polyline id="Fill-93" fill="#DFE1E8" points="353.464474 263.346076 354.354389 261.987784 352.715071 262.202686 353.464474 263.346076"></polyline>
                        <path d="M136.206096,341.402401 C136.206096,341.402401 141.485251,341.721999 142.963943,342.545791 C144.442911,343.366827 154.424565,340.220439 154.609436,339.495833 C154.794307,338.771227 154.609436,338.413057 154.609436,338.413057 L135.015593,338.413057 L136.206096,341.402401" id="Fill-94" fill="#DE9673"></path>
                        <path d="M112.507346,318.124088 C112.507346,318.124088 110.82312,331.357102 112.507346,333.090095 C118.94036,339.716245 142.78348,339.190011 142.78348,339.190011 L142.774113,341.884553 C142.774113,341.884553 106.531689,346.405764 103.164337,339.374606 C99.1181148,330.930053 100.688278,317.154273 100.688278,317.154273 L112.507346,318.124088" id="Fill-95" fill="#DE9673"></path>
                        <polyline id="Fill-96" fill="#2F4563" points="100.546112 457.579064 102.698991 455.12422 98.8122924 451.060365 95.5295241 453.358165 100.546112 457.579064"></polyline>
                        <path d="M95.5295241,453.358165 C95.5295241,453.358165 99.9653252,456.700169 101.19936,456.832417 C102.432843,456.967419 103.015283,457.518451 102.868433,459.397467 C102.721583,461.276483 104.671407,469.194802 106.029699,469.321539 C107.387991,469.448276 112.012245,469.473072 112.851465,472.52303 C113.690686,475.570233 98.1799841,474.931036 97.2192612,472.43211 C96.2585383,469.930428 89.5808667,457.810497 90.371872,456.835172 C91.1631528,455.859847 93.2532142,453.669498 95.5295241,453.358165" id="Fill-97" fill="#050404"></path>
                        <path d="M123.992765,358.641412 C123.992765,358.641412 152.972323,409.124135 141.208633,419.568932 C136.595675,423.663094 132.154915,427.368778 125.771769,432.848784 C122.378519,435.763739 118.281878,439.138805 113.425364,444.194516 L113.223411,444.406663 C109.759905,448.015918 106.90143,451.06863 106.020607,452.010894 C105.988923,452.0412 105.961371,452.071507 105.937401,452.099059 L105.839042,452.203755 L102.613581,455.281264 L97.8810497,451.120978 C97.8810497,451.120978 103.245338,443.698588 106.2705,437.99817 C110.516195,429.997197 117.64957,420.591095 120.949695,417.965431 C126.603551,413.471772 128.157459,412.590122 128.157459,408.292078 C128.157459,403.682702 101.595551,377.933014 101.595551,377.933014 C101.595551,377.933014 97.7421898,361.815352 106.947166,357.599963 C115.916301,353.48927 123.992765,358.641412 123.992765,358.641412" id="Fill-98" fill="#CF463C"></path>
                        <path d="M101.892557,465.398197 C101.892557,465.398197 101.709614,463.072845 102.101949,461.585061 C102.494558,460.100032 96.1025965,460.95413 96.1025965,460.95413 C96.1025965,460.95413 95.2796314,467.161497 95.5176769,468.583157 C95.7551713,470.004818 101.892557,465.398197 101.892557,465.398197" id="Fill-99" fill="#41608A"></path>
                        <path d="M103.086366,461.593326 L94.4665849,463.147234 C94.4665849,463.147234 93.8452972,452.148652 93.9571565,443.723384 C94.0778324,434.664432 93.6221296,427.545108 96.3883062,420.334865 C98.9759487,413.590243 98.3874474,411.022438 98.6130947,406.418572 C98.8406705,401.814707 96.403184,378.109344 96.403184,378.109344 C96.403184,378.109344 93.4590243,367.496483 100.275005,360.007969 C106.915482,352.712316 124.095533,359.977663 124.095533,359.977663 C124.095533,359.977663 120.51686,392.361766 111.92408,412.394506 C109.491828,418.064617 110.806864,421.508562 107.705109,430.267203 C107.705109,430.267203 102.994068,449.371454 103.086366,461.593326" id="Fill-100" fill="#F7594D"></path>
                        <path d="M110.590033,295.945082 C110.138463,296.70826 109.808396,297.683585 109.568421,298.716769 C109.340019,299.694849 109.191792,300.725278 109.095637,301.675806 C108.88652,303.739418 108.922062,305.43935 108.922062,305.43935 C108.922062,305.43935 97.4239693,302.937668 99.3109757,300.256901 C101.19688,297.573379 100.087103,289.448424 100.087103,289.448424 C100.087103,289.448424 112.078644,293.43789 110.590033,295.945082" id="Fill-101" fill="#EEA987"></path>
                        <path d="M117.05914,273.799138 C117.05914,273.799138 120.002197,276.353168 118.68661,283.7177 C118.68661,283.7177 119.337378,289.583427 120.235283,290.60559 C121.133464,291.630508 117.824522,292.007964 117.476546,292.743591 C117.128294,293.481973 116.470087,296.928673 114.163195,299.00606 C111.856579,301.086203 100.43563,294.820978 99.8796399,291.280603 C99.3233739,287.742983 91.4097393,272.573094 103.93523,271.878794 C116.460995,271.184495 117.05914,273.799138 117.05914,273.799138" id="Fill-102" fill="#EEA886"></path>
                        <path d="M124.939161,328.13357 C124.7058,328.871951 125.583592,340.201153 125.503693,341.179233 C125.065347,346.538012 126.449262,354.682253 126.994232,357.599963 C127.123724,358.288752 127.19591,358.641412 127.19591,358.641412 C114.780626,364.713776 97.5121343,364.182031 97.5121343,364.182031 C97.5735743,363.710899 99.9843358,357.878234 100.046051,357.431898 C101.068214,350.141756 102.57804,346.813527 102.167246,341.884553 L102.168623,341.884553 C101.939395,339.115621 101.234626,336.219952 99.7749439,332.632739 C95.5584532,322.273353 95.7876822,315.377197 96.4753691,309.685045 C97.161403,303.992893 98.8682221,300.747319 98.8682221,300.747319 L109.357101,301.874178 C111.583543,304.340042 113.564775,305.654252 119.892542,311.272015 C126.625041,317.250703 127.802595,319.063596 124.939161,328.13357" id="Fill-103" fill="#EB4747"></path>
                        <path d="M95.1316795,466.971391 C95.1316795,466.971391 101.198533,465.246663 101.378445,465.075843 C101.558356,464.907779 101.599133,464.541343 102.436149,464.874717 C103.273166,465.210846 103.619213,466.478218 104.440525,466.880471 C105.262113,467.282723 110.268507,468.745711 113.01154,470.095738 C114.002845,470.5834 118.197295,472.181391 118.801776,473.517641 C119.406533,474.853892 119.218631,476.862401 112.011694,476.385759 C104.804757,475.909117 96.9208778,476.925769 95.3427245,476.137795 C93.7645711,475.34982 94.7184061,469.057044 95.1316795,466.971391" id="Fill-104" fill="#050404"></path>
                        <path d="M118.999871,281.069995 C118.999871,281.069995 120.408307,265.778879 105.582262,268.509238 C90.7559408,271.239598 98.398468,287.952374 100.395956,293.399318 C100.395956,293.399318 100.153502,284.940989 107.291836,284.665473 C114.429894,284.389958 115.90528,282.736864 118.999871,281.069995" id="Fill-105" fill="#464240"></path>
                        <path d="M106.131915,282.516452 C105.23952,280.965299 102.178267,281.791846 102.528171,284.158525 C102.877801,286.522448 105.330992,288.883617 106.144038,287.740227 C106.95736,286.594082 107.442543,284.797721 106.131915,282.516452" id="Fill-106" fill="#EEA987"></path>
                        <path d="M106.469698,312.558673 C106.469698,312.558673 105.247786,325.659439 106.931462,327.392433 C113.364751,334.018583 138.748003,334.14532 138.748003,334.14532 L139.960272,337.952946 C139.960272,337.952946 102.229512,340.523506 98.8624363,333.495103 C94.8162142,325.047795 96.3863776,311.272015 96.3863776,311.272015 L106.469698,312.558673" id="Fill-107" fill="#EEA987"></path>
                        <path d="M100.883068,272.272782 C100.883068,272.272782 95.1735579,266.795531 91.1141111,273.000143 C87.0549397,279.204754 95.9361851,287.858699 99.536623,282.723088 C103.137336,277.584722 100.883068,272.272782 100.883068,272.272782" id="Fill-108" fill="#464240"></path>
                        <path d="M109.568421,298.716769 C109.340019,299.694849 109.191792,300.725278 109.095637,301.675806 C105.275613,299.934548 102.419067,294.614342 102.419067,294.614342 C105.185244,297.000307 109.567319,298.716769 109.567319,298.716769 C109.567319,298.716769 109.567319,298.716769 109.568421,298.716769" id="Fill-109" fill="#A77860"></path>
                        <polygon id="Fill-110" fill="#6E6760" points="128.160765 339.964209 164.146684 339.964209 164.146684 337.952946 128.160765 337.952946"></polygon>
                        <polyline id="Fill-111" fill="#6E6760" points="180.35692 307.836335 164.145858 339.964209 162.352527 339.057763 178.563314 306.929889 180.35692 307.836335"></polyline>
                        <path d="M133.448736,334.14532 C133.448736,334.14532 138.727891,333.740312 140.206858,332.693353 C141.685551,331.646393 151.667205,335.649635 151.852076,336.575368 C152.036947,337.498345 151.852076,337.952946 151.852076,337.952946 L132.258233,337.952946 L133.448736,334.14532" id="Fill-112" fill="#EEA987"></path>
                        <polyline id="Fill-113" fill="#EB4747" points="98.8684976 300.747319 99.6068794 298.741565 109.681383 300.747319 109.681383 302.53266 98.8684976 300.747319"></polyline>
                        <path d="M106.453993,312.732247 C106.453993,312.732247 107.535116,305.139038 102.248799,304.47229 C96.9627562,303.805542 96.3830714,311.299566 96.3830714,311.299566 L106.453993,312.732247" id="Fill-114" fill="#EEA987"></path>
                        <path d="M450.823421,455.873622 C450.823421,455.873622 451.435066,460.171666 451.51221,460.816372 C451.589355,461.461079 458.336732,460.436161 458.336732,460.436161 L458.882253,455.319836 C458.882253,455.319836 451.666499,455.267488 450.823421,455.873622" id="Fill-115" fill="#5C544D"></path>
                        <path d="M451.440576,460.270851 C451.440576,460.270851 449.302575,462.860698 447.236208,463.990312 C445.169841,465.117171 441.918757,465.566261 440.698223,466.734447 C439.813818,467.577525 437.482956,471.208821 446.070777,471.134432 C454.655843,471.062797 458.796843,471.649646 459.717065,470.255537 C460.637287,468.864183 458.386325,459.978805 458.386325,459.978805 C458.386325,459.978805 456.35302,460.717187 451.440576,460.270851" id="Fill-116" fill="#3C4145"></path>
                        <path d="M402.481454,455.873622 C402.481454,455.873622 403.095854,460.171666 403.170243,460.816372 C403.247388,461.461079 409.994765,460.436161 409.994765,460.436161 L410.540286,455.319836 C410.540286,455.319836 403.324532,455.267488 402.481454,455.873622" id="Fill-117" fill="#5C544D"></path>
                        <path d="M403.101364,460.270851 C403.101364,460.270851 400.963363,462.860698 398.894241,463.990312 C396.827874,465.117171 389.218133,466.045658 387.997599,467.213845 C387.113194,468.056922 385.647451,471.45403 397.72881,471.134432 C406.311121,470.911264 410.454876,471.649646 411.375098,470.255537 C412.29532,468.864183 410.044357,459.978805 410.044357,459.978805 C410.044357,459.978805 408.126769,460.766779 403.101364,460.270851" id="Fill-118" fill="#3C4145"></path>
                        <path d="M448.426436,344.904204 C448.426436,344.904204 452.016404,355.569413 451.545272,364.760613 C451.071386,373.954569 453.402247,384.010888 454.352776,393.612607 C455.416267,404.319143 459.761148,429.661068 459.918191,435.386282 C460.075235,441.111497 459.243178,459.394712 459.243178,459.394712 L450.545151,459.595838 C450.545151,459.595838 443.241232,415.29293 441.351195,410.771719 C439.458403,406.253263 430.077097,374.023448 429.760254,370.408683 C429.446166,366.791163 448.426436,344.904204 448.426436,344.904204" id="Fill-119" fill="#FFA7A7"></path>
                        <path d="M411.865516,346.802507 C411.865516,346.802507 407.088075,371.995653 406.457144,377.621682 C405.826214,383.24771 405.404675,404.845378 405.090587,408.360957 C404.773744,411.879291 402.988403,454.372062 401.307758,459.595838 L412.424812,459.595838 C412.424812,459.595838 420.960286,428.705029 420.960286,414.088926 C420.960286,399.472824 427.553374,382.313712 431.81009,372.667911 C436.066806,363.024865 445.809038,362.796187 448.426436,344.904204 C448.426436,344.904204 415.405891,341.126885 411.865516,346.802507" id="Fill-120" fill="#FFA7A7"></path>
                        <path d="M434.46055,260.703882 C434.46055,260.703882 425.696399,257.430756 421.654585,264.100989 C417.612771,270.773977 418.004003,284.130973 422.420518,285.773046 C426.839788,287.415119 433.476959,286.55551 435.736187,282.381449 C437.99817,278.207388 440.042496,272.170841 439.94331,268.137292 C439.844125,264.103744 436.761105,261.866557 434.46055,260.703882" id="Fill-121" fill="#EEA886"></path>
                        <path d="M423.891772,285.362528 C423.891772,285.362528 424.247187,287.660328 423.660338,288.792697 C423.076245,289.922311 434.686473,289.952618 434.686473,289.952618 C434.686473,289.952618 435.628736,283.797599 437.414077,278.595865 C439.202173,273.39413 423.891772,285.362528 423.891772,285.362528" id="Fill-122" fill="#EEA886"></path>
                        <path d="M437.414077,278.595865 C437.414077,278.595865 436.612327,279.91834 433.341957,279.40588 C430.071586,278.893421 426.082121,274.540275 424.715563,274.063633 C423.351761,273.584236 423.337985,272.782485 423.337985,272.782485 L422.483887,274.030571 L421.03192,274.124246 C421.03192,274.124246 422.354395,270.231211 420.359662,268.644241 C418.364929,267.057271 422.431539,256.044913 432.920418,259.70927 C432.920418,259.70927 440.976494,261.929926 440.684447,266.51175 C440.389646,271.093575 439.218704,276.314595 437.414077,278.595865" id="Fill-123" fill="#191312"></path>
                        <path d="M422.971549,288.654939 C422.971549,288.654939 423.010122,286.492142 423.988202,286.285505 C424.969038,286.078868 434.8077,285.131095 436.011703,285.604981 L436.011703,288.123194 C436.011703,288.123194 433.691861,289.550365 422.971549,288.654939" id="Fill-124" fill="#E2D2CA"></path>
                        <path d="M423.555643,271.115616 C423.737483,270.346928 425.690888,268.151068 426.440291,270.503971 C427.189693,272.85412 425.310677,276.017039 424.260962,275.747033 C423.214003,275.477028 423.090021,273.063511 423.555643,271.115616" id="Fill-125" fill="#EEA886"></path>
                        <path d="M422.971549,288.654939 C422.971549,288.654939 417.579709,290.594569 411.331015,293.247784 C411.331015,293.247784 404.145568,295.931306 403.368614,303.868911 C402.955341,308.081544 398.469947,330.439635 397.626869,332.329672 C396.786547,334.222464 386.840434,364.611835 386.490529,365.242766 C386.140624,365.873696 394.607218,369.389276 395.16927,369.10825 C395.728567,368.827224 404.79854,341.39138 405.710497,339.358075 C405.710497,339.358075 410.931518,322.907039 411.072031,320.452195 C411.072031,320.452195 411.220809,327.444781 411.501835,329.406452 C411.780106,331.368123 406.859397,369.463665 406.997155,370.513379 C407.137668,371.565849 429.371777,372.899344 438.270931,371.918509 C447.170085,370.937673 454.350021,368.890592 454.350021,368.890592 C454.350021,368.890592 447.34917,338.82633 447.564072,335.492591 C448.032448,328.23 450.459741,314.55065 450.459741,314.55065 L457.714067,328.23 L448.426436,352.125468 L450.553416,359.388059 C450.553416,359.388059 467.811713,333.307753 468.373765,330.924543 C468.933062,328.541333 467.527932,325.507906 466.615976,323.546235 C465.704019,321.584564 459.722575,306.651618 458.320201,304.549434 C456.920582,302.44725 454.551148,294.030249 448.828689,291.688366 C444.042983,289.72945 436.011703,288.123194 436.011703,288.123194 L422.971549,288.654939" id="Fill-126" fill="#EB4747"></path>
                        <polyline id="Fill-127" fill="#D6D6D6" points="411.105093 379.015791 370.447255 368.59028 377.720867 340.225949 418.378704 350.65146 411.105093 379.015791"></polyline>
                        <path d="M382.950153,371.444622 C382.950153,371.444622 381.787478,373.323638 381.363184,373.858139 C380.938889,374.392639 382.407388,374.728768 383.035563,374.188757 C383.663739,373.645992 382.950153,371.444622 382.950153,371.444622" id="Fill-128" fill="#C98462"></path>
                        <path d="M391.416748,377.858625 C391.416748,377.858625 392.102782,377.142285 392.25156,376.682173 C392.25156,376.682173 392.455442,375.828075 392.637282,375.227451 C392.69514,375.037345 392.750243,374.872036 392.797081,374.770095 C392.992697,374.340291 393.549238,373.458641 393.728324,372.29872 C393.907409,371.141555 394.414357,365.93982 394.414357,365.93982 L391.265214,365.146335 L388.733226,364.611835 C388.733226,364.611835 383.266996,370.064289 382.97495,371.125024 C382.947398,371.22972 382.922602,371.33166 382.908826,371.430846 C382.749027,372.353823 383.016277,373.105981 382.988726,373.599154 C382.977705,373.780994 383.005256,375.588377 383.426795,375.927261 C384.010888,376.398392 384.606002,376.486557 385.09642,376.329513 C385.09642,376.329513 386.281137,377.200143 387.270238,377.147795 C387.270238,377.147795 388.336483,377.985362 389.548752,377.572089 C389.548752,377.572089 390.725204,378.29945 391.416748,377.858625" id="Fill-129" fill="#DE9D7D"></path>
                        <path d="M403.710254,344.962062 C403.710254,344.962062 396.4945,366.81596 395.16927,369.10825 C395.16927,369.10825 389.876616,367.995167 386.490529,365.242766 L394.414357,341.65863 L403.710254,344.962062" id="Fill-130" fill="#EB4747"></path>
                        <path d="M407.809926,171.057993 C407.809926,179.028935 404.944564,186.32817 400.186409,191.985332 C394.232517,199.062776 385.300301,203.588396 375.279799,203.588396 C364.953474,203.588396 355.555637,198.745107 349.535621,190.947464 C345.278905,185.448173 342.746917,178.548711 342.746917,171.057993 C342.746917,153.09107 357.313427,138.525938 375.279799,138.525938 C393.246171,138.525938 407.809926,153.09107 407.809926,171.057993" id="Fill-162" fill="#EEF0F7"></path>
                        <path d="M398.547091,188.499233 C398.425865,188.379934 398.155859,188.281024 398.001571,188.178533 C397.99055,188.170267 397.979529,188.165308 397.971264,188.15842 L397.968509,188.162002 C396.541338,187.372649 392.356256,185.293884 384.101809,182.92445 C384.099053,182.92445 384.096298,182.922797 384.093543,182.922797 C382.597493,182.466268 381.465124,182.169262 381.073892,182.069801 L380.374082,180.956442 C380.261121,179.833992 380.285918,178.16051 380.318979,177.040539 C381.481655,175.691614 382.528614,173.583369 383.120973,170.294815 C383.308324,170.43643 383.454347,170.127301 383.454347,170.127301 C383.349651,169.941879 385.024786,165.854881 384.721719,164.933006 C384.550899,164.409802 384.203749,164.475925 383.930989,164.628286 C383.972316,164.389689 384.013644,164.142276 384.057726,163.878883 C384.057726,163.878883 384.721719,157.612281 381.547779,154.120947 C381.219915,153.805757 380.051729,153.727786 380.051729,153.727786 C374.957446,152.168368 371.901978,152.864596 369.9899,153.683979 C367.152089,156.007402 366.937187,159.962153 367.066679,162.14038 C367.124537,162.655869 367.182396,163.174665 367.240254,163.679685 C367.243009,163.69043 367.243009,163.69539 367.243009,163.69539 C367.267805,163.897067 367.289847,164.092683 367.314643,164.288024 C367.050148,164.123541 366.702998,164.040886 366.510137,164.558305 C366.171253,165.467231 367.408318,169.548443 367.562607,169.80054 C367.562607,169.80054 367.829857,170.219048 368.039249,170.029218 C368.042004,170.028116 368.042004,170.021503 368.042004,170.020126 C368.628852,173.60541 369.681322,175.82028 370.788895,177.180501 C370.708995,178.636325 370.499603,180.347277 370.350825,181.439972 L369.091719,182.755559 L369.091719,182.756661 C369.025595,182.778427 368.959471,182.800192 368.893347,182.823887 C368.893347,182.818652 368.893347,182.815621 368.893347,182.815621 C354.651946,186.615257 350.629418,189.260207 350.629418,189.260207 C350.271248,189.479793 349.904812,190.069396 349.535621,190.947464 C355.481248,198.64785 364.832247,203.58812 375.279799,203.58812 C385.319588,203.58812 394.243538,199.049552 400.186409,191.985332 C399.57201,190.489006 399.131185,189.083326 398.547091,188.499233" id="Fill-163" fill="#FFA7A7"></path>
                        <polygon id="Fill-164" fill="#E0E0E0" points="146.159924 200.39517 146.742364 200.39517 146.742364 145.422093 146.159924 145.422093"></polygon>
                        <polygon id="Fill-165" fill="#E0E0E0" points="187.582041 200.39517 188.164481 200.39517 188.164481 145.422093 187.582041 145.422093"></polygon>
                        <polygon id="Fill-166" fill="#E0E0E0" points="229.003057 200.39517 229.58715 200.39517 229.58715 145.422093 229.003057 145.422093"></polygon>
                        <polygon id="Fill-167" fill="#E0E0E0" points="270.426827 200.39517 271.008165 200.39517 271.008165 145.422093 270.426827 145.422093"></polygon>
                        <polygon id="Fill-168" fill="#E0E0E0" points="311.847842 200.39517 312.431935 200.39517 312.431935 145.422093 311.847842 145.422093"></polygon>
                        <polygon id="Fill-169" fill="#B8B8B8" points="146.451144 205.562465 153.041477 205.562465 153.041477 203.651764 146.451144 203.651764"></polygon>
                        <polygon id="Fill-170" fill="#D9D9D9" points="146.451144 140.081223 156.372461 140.081223 156.372461 138.648267 146.451144 138.648267"></polygon>
                        <polygon id="Fill-171" fill="#D9D9D9" points="146.451144 142.73003 160.524481 142.73003 160.524481 141.297074 146.451144 141.297074"></polygon>
                        <polygon id="Fill-172" fill="#D9D9D9" points="187.42665 140.081223 199.074899 140.081223 199.074899 138.648267 187.42665 138.648267"></polygon>
                        <polygon id="Fill-173" fill="#D9D9D9" points="187.42665 142.73003 194.874939 142.73003 194.874939 141.297074 187.42665 141.297074"></polygon>
                        <polygon id="Fill-174" fill="#D9D9D9" points="229.58715 140.081223 236.805658 140.081223 236.805658 138.648267 229.58715 138.648267"></polygon>
                        <polygon id="Fill-175" fill="#D9D9D9" points="229.58715 142.73003 237.998641 142.73003 237.998641 141.297074 229.58715 141.297074"></polygon>
                        <polygon id="Fill-176" fill="#D9D9D9" points="271.008165 140.081223 281.52184 140.081223 281.52184 138.648267 271.008165 138.648267"></polygon>
                        <polygon id="Fill-177" fill="#D9D9D9" points="271.008165 142.73003 279.422411 142.73003 279.422411 141.297074 271.008165 141.297074"></polygon>
                        <polygon id="Fill-178" fill="#D9D9D9" points="312.139889 140.081223 318.418889 140.081223 318.418889 138.648267 312.139889 138.648267"></polygon>
                        <polygon id="Fill-179" fill="#D9D9D9" points="312.139889 142.73003 317.165293 142.73003 317.165293 141.297074 312.139889 141.297074"></polygon>
                        <polygon id="Fill-180" fill="#B8B8B8" points="187.873261 205.562465 194.463319 205.562465 194.463319 203.651764 187.873261 203.651764"></polygon>
                        <polygon id="Fill-181" fill="#B8B8B8" points="229.58715 205.562465 236.177483 205.562465 236.177483 203.651764 229.58715 203.651764"></polygon>
                        <polygon id="Fill-182" fill="#B8B8B8" points="271.008165 205.562465 277.598498 205.562465 277.598498 203.651764 271.008165 203.651764"></polygon>
                        <polygon id="Fill-183" fill="#B8B8B8" points="312.431935 205.562465 319.022269 205.562465 319.022269 203.651764 312.431935 203.651764"></polygon>
                        <g id="Group-186" transform="translate(146.298784, 159.523533)">
                            <mask id="mask-22" fill="white">
                                <use xlink:href="#path-21"></use>
                            </mask>
                            <g id="Clip-185"></g>
                            <path d="M151.486742,24.5379704 C138.565061,24.5387969 127.335045,19.5144944 115.625632,14.2780449 C101.172084,7.81307139 86.2253622,1.12823638 66.3110947,2.95848652 C53.5946721,4.12749921 45.6129852,8.78536594 38.5708065,12.8946811 C32.1945489,16.6157948 26.1659921,19.8878181 18.0013628,20.1671909 C4.80636965,20.618761 0.228953464,15.5572639 0.152360127,15.2484109 L0.152360127,12.0003575 C0.168891063,12.0562871 3.04968218,17.7374188 17.9873115,17.670193 C25.343578,17.6368556 30.7728884,14.4684262 37.0596034,10.799936 C44.365175,6.53660762 52.6457964,1.70461502 66.0300687,0.474437864 C86.7405764,-1.42965045 102.053733,5.41884082 116.862697,12.0419603 C132.357694,18.9722797 147.144617,25.4711417 165.841105,19.832715 L165.841105,22.5032877 C160.509878,24.1103702 156.247652,24.5376949 151.486742,24.5379704" id="Fill-184" fill="#F7594D" mask="url(#mask-22)"></path>
                        </g>
                        <g id="Group-189" transform="translate(146.298784, 152.084611)">
                            <mask id="mask-24" fill="white">
                                <use xlink:href="#path-23"></use>
                            </mask>
                            <g id="Clip-188"></g>
                            <path d="M73.9346113,31.3545019 C64.3990164,31.3553284 56.8350111,25.5863072 49.4299783,19.939615 C43.8152459,15.6581026 37.9902951,11.2804352 31.2660613,9.12121946 C10.7448329,2.53143733 0.246310947,14.5643057 0.152360127,14.6703792 L0.152360127,11.0098789 C0.263117398,10.8847948 2.13607245,8.69747647 7.55381121,6.60934373 C12.4866425,4.70801058 20.7625801,3.1912972 32.1782935,6.76253041 C39.4103025,9.02506452 45.4168181,13.6052359 51.2255135,18.0347002 C63.0076626,27.0200904 73.1852089,34.7797118 90.8567795,22.6250656 C104.244082,13.4192628 116.859942,4.64629508 129.274675,1.4412221 C141.419402,-1.69331888 154.079344,0.601450555 165.92927,11.259496 L165.841105,14.5835918 C140.67,-8.15608831 119.234886,6.25089794 92.542935,24.6087779 C85.4732047,29.4713527 79.3815547,31.3539508 73.9346113,31.3545019" id="Fill-187" fill="#F7594D" mask="url(#mask-24)"></path>
                        </g>
                    </g>
                </g>
            </g>
        </g>
    </g>
</svg>