<?xml version="1.0" encoding="UTF-8"?>
<svg width="25px" height="25px" viewBox="0 0 25 25" version="1.1" xmlns="http://www.w3.org/2000/svg" xmlns:xlink="http://www.w3.org/1999/xlink">
    <!-- Generator: Sketch 52.2 (67145) - http://www.bohemiancoding.com/sketch -->
    <title>dashboard (2)</title>
    <desc>Created with Sketch.</desc>
    <g id="Page-1" stroke="none" stroke-width="1" fill="none" fill-rule="evenodd" opacity="0.35">
        <g id="Heat-map" transform="translate(-33.000000, -222.000000)" fill="#FFFFFF" fill-rule="nonzero">
            <g id="Group-21" transform="translate(1.000000, 0.000000)">
                <g id="dashboard-(2)" transform="translate(32.000000, 222.000000)">
                    <path d="M9.63535308,8.33339692 L1.82285308,8.33339692 C0.817680371,8.33339692 0,7.51571655 0,6.51035308 L0,1.82285308 C0,0.817680371 0.817680371,0 1.82285308,0 L9.63535308,0 C10.6407166,0 11.4583969,0.817680371 11.4583969,1.82285308 L11.4583969,6.51035308 C11.4583969,7.51571655 10.6407166,8.33339692 9.63535308,8.33339692 Z M1.82285308,1.5625 C1.67922974,1.5625 1.5625,1.67922974 1.5625,1.82285308 L1.5625,6.51035308 C1.5625,6.65416719 1.67922974,6.77089692 1.82285308,6.77089692 L9.63535308,6.77089692 C9.77916719,6.77089692 9.89589692,6.65416719 9.89589692,6.51035308 L9.89589692,1.82285308 C9.89589692,1.67922974 9.77916719,1.5625 9.63535308,1.5625 L1.82285308,1.5625 Z" id="Shape"></path>
                    <path d="M9.63535308,25 L1.82285308,25 C0.817680371,25 0,24.1823196 0,23.1771469 L0,12.2396469 C0,11.2342834 0.817680371,10.4166031 1.82285308,10.4166031 L9.63535308,10.4166031 C10.6407166,10.4166031 11.4583969,11.2342834 11.4583969,12.2396469 L11.4583969,23.1771469 C11.4583969,24.1823196 10.6407166,25 9.63535308,25 Z M1.82285308,11.9791031 C1.67922974,11.9791031 1.5625,12.0958328 1.5625,12.2396469 L1.5625,23.1771469 C1.5625,23.3207703 1.67922974,23.4375 1.82285308,23.4375 L9.63535308,23.4375 C9.77916719,23.4375 9.89589692,23.3207703 9.89589692,23.1771469 L9.89589692,12.2396469 C9.89589692,12.0958328 9.77916719,11.9791031 9.63535308,11.9791031 L1.82285308,11.9791031 Z" id="Shape"></path>
                    <path d="M23.1771469,25 L15.3646469,25 C14.3592834,25 13.5416031,24.1823196 13.5416031,23.1771469 L13.5416031,18.4896469 C13.5416031,17.4842834 14.3592834,16.6666031 15.3646469,16.6666031 L23.1771469,16.6666031 C24.1823196,16.6666031 25,17.4842834 25,18.4896469 L25,23.1771469 C25,24.1823196 24.1823196,25 23.1771469,25 Z M15.3646469,18.2291031 C15.2208328,18.2291031 15.1041031,18.3458328 15.1041031,18.4896469 L15.1041031,23.1771469 C15.1041031,23.3207703 15.2208328,23.4375 15.3646469,23.4375 L23.1771469,23.4375 C23.3207703,23.4375 23.4375,23.3207703 23.4375,23.1771469 L23.4375,18.4896469 C23.4375,18.3458328 23.3207703,18.2291031 23.1771469,18.2291031 L15.3646469,18.2291031 Z" id="Shape"></path>
                    <path d="M23.1771469,14.5833969 L15.3646469,14.5833969 C14.3592834,14.5833969 13.5416031,13.7657166 13.5416031,12.7603531 L13.5416031,1.82285308 C13.5416031,0.817680371 14.3592834,2.84217094e-14 15.3646469,2.84217094e-14 L23.1771469,2.84217094e-14 C24.1823196,2.84217094e-14 25,0.817680371 25,1.82285308 L25,12.7603531 C25,13.7657166 24.1823196,14.5833969 23.1771469,14.5833969 Z M15.3646469,1.5625 C15.2208328,1.5625 15.1041031,1.67922974 15.1041031,1.82285308 L15.1041031,12.7603531 C15.1041031,12.9041672 15.2208328,13.0208969 15.3646469,13.0208969 L23.1771469,13.0208969 C23.3207703,13.0208969 23.4375,12.9041672 23.4375,12.7603531 L23.4375,1.82285308 C23.4375,1.67922974 23.3207703,1.5625 23.1771469,1.5625 L15.3646469,1.5625 Z" id="Shape"></path>
                </g>
            </g>
        </g>
    </g>
</svg>