<?xml version="1.0" encoding="UTF-8"?>
<svg width="25px" height="22px" viewBox="0 0 25 22" version="1.1" xmlns="http://www.w3.org/2000/svg" xmlns:xlink="http://www.w3.org/1999/xlink">
    <!-- Generator: Sketch 52.2 (67145) - http://www.bohemiancoding.com/sketch -->
    <title>home (1)</title>
    <desc>Created with Sketch.</desc>
    <g id="Page-1" stroke="none" stroke-width="1" fill="none" fill-rule="evenodd" opacity="0.37">
        <g id="Heat-map" transform="translate(-34.000000, -125.000000)" fill="#FFFFFF">
            <g id="Group-21" transform="translate(1.000000, 0.000000)">
                <g id="home-(1)" transform="translate(33.000000, 125.000000)">
                    <path d="M24.7346491,8.69739738 L12.9073587,0.161733624 C12.6792885,-0.00283406114 12.3694444,-0.00283406114 12.1414717,0.161733624 L0.314083821,8.69739738 C0.0251949318,8.90591703 -0.0375730994,9.30575983 0.173976608,9.59051092 C0.385526316,9.87526201 0.79122807,9.93703493 1.08006823,9.72861135 L12.5243665,1.46929258 L23.9686647,9.72856332 C24.0840643,9.81190393 24.2181774,9.8520131 24.3511209,9.8520131 C24.550731,9.8520131 24.7477096,9.76146725 24.8747076,9.59046288 C25.086306,9.30575983 25.023538,8.90591703 24.7346491,8.69739738 Z" id="Path"></path>
                    <path d="M21.6006823,9.87324454 C21.2426901,9.87324454 20.9523879,10.1593406 20.9523879,10.5122533 L20.9523879,20.6836026 L15.7661306,20.6836026 L15.7661306,15.1314367 C15.7661306,13.3695153 14.3118421,11.9361528 12.5244152,11.9361528 C10.7369883,11.9361528 9.28269981,13.3696114 9.28269981,15.1314367 L9.28269981,20.6836507 L4.09639376,20.6836507 L4.09639376,10.5123013 C4.09639376,10.1593886 3.80609162,9.87329258 3.44809942,9.87329258 C3.09010721,9.87329258 2.79980507,10.1593886 2.79980507,10.5123013 L2.79980507,21.3227074 C2.79980507,21.6756201 3.09010721,21.9617162 3.44809942,21.9617162 L9.93099415,21.9617162 C10.2719298,21.9617162 10.5509259,21.7020873 10.5767544,21.3724716 C10.5783138,21.3575328 10.5792885,21.3412009 10.5792885,21.3227074 L10.5792885,15.1314847 C10.5792885,14.0742838 11.4518519,13.2142183 12.5244152,13.2142183 C13.5969786,13.2142183 14.4695419,14.0743319 14.4695419,15.1314847 L14.4695419,21.3227074 C14.4695419,21.3411048 14.4705166,21.3571485 14.472076,21.3718952 C14.4976121,21.7017511 14.7767057,21.9617162 15.1178363,21.9617162 L21.600731,21.9617162 C21.9587719,21.9617162 22.2490253,21.6756201 22.2490253,21.3227074 L22.2490253,10.5123013 C22.2489766,10.1593406 21.9587232,9.87324454 21.6006823,9.87324454 Z" id="Path"></path>
                </g>
            </g>
        </g>
    </g>
</svg>