<?xml version="1.0" encoding="UTF-8"?>
<svg width="21px" height="21px" viewBox="0 0 21 21" version="1.1" xmlns="http://www.w3.org/2000/svg" xmlns:xlink="http://www.w3.org/1999/xlink">
    <!-- Generator: Sketch 52.2 (67145) - http://www.bohemiancoding.com/sketch -->
    <title>profile (1)</title>
    <desc>Created with Sketch.</desc>
    <g id="Page-1" stroke="none" stroke-width="1" fill="none" fill-rule="evenodd" opacity="0.37">
        <g id="Heat-map" transform="translate(-36.000000, -462.000000)" fill="#FFFFFF" fill-rule="nonzero">
            <g id="Group-21" transform="translate(1.000000, 0.000000)">
                <g id="profile-(1)" transform="translate(35.000000, 462.000000)">
                    <path d="M10.4549468,11.3000547 C13.5552766,11.3000547 16.0699521,8.76926275 16.0699521,5.64914677 C16.0699521,2.52903078 13.5552394,0.0155509294 10.4549468,0.0155509294 C7.35465426,0.0155509294 4.83994149,2.5463429 4.83994149,5.64914677 C4.83994149,8.75195063 7.35461702,11.3000547 10.4549468,11.3000547 Z M10.4549468,1.48895465 C12.7284947,1.48895465 14.5887074,3.36102424 14.5887074,5.64914677 C14.5887074,7.93726929 12.7284947,9.80930141 10.4549468,9.80930141 C8.18139894,9.80930141 6.32118617,7.93723182 6.32118617,5.64910929 C6.32118617,3.36098677 8.1813617,1.48895465 10.4549468,1.48895465 Z" id="Shape"></path>
                    <path d="M0.74062234,20.12309 L20.2381543,20.12309 C20.6515266,20.12309 20.9787766,19.7937475 20.9787766,19.377732 C20.9787766,15.477559 17.8268032,12.2880821 13.9341702,12.2880821 L7.04460638,12.2880821 C3.16921277,12.2880821 0,15.4602094 0,19.377732 C0,19.7937475 0.32725,20.12309 0.74062234,20.12309 Z M7.04460638,13.7787979 L13.9341702,13.7787979 C16.7588936,13.7787979 19.0841223,15.8935744 19.4458511,18.6323367 L1.53292553,18.6323367 C1.89461702,15.910924 4.21988298,13.7787979 7.04460638,13.7787979 Z" id="Shape"></path>
                </g>
            </g>
        </g>
    </g>
</svg>